<svg width="96" height="354" viewBox="0 0 96 354" fill="none" xmlns="http://www.w3.org/2000/svg">
<path opacity="0.5" d="M50.1338 11.6304C52.3488 14.0692 54.186 16.9337 55.465 20.0472C56.7295 23.3216 57.0717 26.8923 56.7069 30.2893C56.13 35.6903 54.6488 40.8264 53.4711 46.0441C51.0997 55.9224 49.689 66.3153 50.903 76.7952C51.3791 80.6556 52.0775 84.5263 53.3939 88.2227C55.1117 94.0078 58.0904 99.3234 61.4958 104.186C67.8361 113.255 75.7577 120.833 82.0951 129.902C85.8476 135.185 89.2713 140.767 91.9933 146.73C94.4584 152.128 96.1395 158.182 95.4764 164.054C95.0545 168.011 93.114 171.458 90.6631 174.167C86.5535 178.804 81.2326 181.804 76.5713 185.693C73.3311 188.378 70.1791 191.644 69.0416 196.134C67.674 201.116 69.1098 206.504 70.145 211.574C71.4642 217.302 72.3713 223.165 72.2509 228.985C72.1858 234.124 71.2365 239.233 69.1035 243.67C67.2702 247.746 64.4422 251.155 61.1906 253.884C57.2367 257.196 52.8249 259.792 48.6102 262.692C40.9863 267.902 33.5506 273.858 28.4073 282.069C25.7269 286.279 23.7934 291.038 22.3661 295.986C20.868 300.953 19.8359 306.105 18.4783 311.128C17.1233 316.139 15.3899 321.017 13.0096 325.484C9.50042 332.141 5.62406 338.551 2.4162 345.41C1.21717 348.022 0.154026 350.89 0.540712 354C0.429182 353.964 0.207208 353.896 0.0985803 353.859C0.0561336 352.635 -0.11709 351.386 0.130695 350.194C0.639633 347.577 1.88592 345.294 2.89288 342.92C5.23933 338.116 7.87012 333.501 10.4202 328.837C12.4399 325.229 14.3112 321.503 15.7411 317.53C17.5943 312.479 18.7796 307.128 20.0666 301.841C21.1731 297.297 22.4639 292.804 24.2074 288.543C26.2921 283.647 29.1102 279.181 32.5064 275.338C38.8204 268.143 46.7293 262.988 54.5084 257.869C58.3936 255.248 62.294 252.487 65.2553 248.642C68.2065 244.883 70.1818 240.212 71.0365 235.235C71.9789 229.801 71.71 224.098 70.86 218.535C70.0229 212.786 68.1427 207.153 67.8454 201.354C67.5733 196.755 69.2194 192.344 71.9584 189.153C75.6801 184.803 80.5042 181.887 84.8873 178.423C88.2075 175.795 91.4858 172.825 93.4021 168.747C95.4688 164.413 95.1706 159.06 93.9742 154.243C92.2661 148.008 89.21 142.272 85.8769 136.837C82.6067 131.574 78.9551 126.589 75.0097 121.903C67.9838 113.547 60.3242 105.494 55.4469 95.378C50.244 84.7126 48.9957 72.4768 50.113 61.0264C50.7071 54.6908 52.0615 48.5439 53.548 42.4661C54.6022 37.9386 55.8072 33.4196 56.0965 28.6794C56.3143 25.3635 55.6211 21.9482 54.2049 18.887C51.9351 14.122 48.329 10.1742 44.2379 7.26417C38.5048 3.23629 31.8827 0.807418 25.2884 0.495932C25.3752 0.329492 25.459 0.164008 25.5371 0.000436209C29.967 -0.0280414 34.3958 1.33736 38.5847 3.19546C42.8013 5.22586 46.8739 7.9133 50.1342 11.6121L50.1338 11.6304Z" fill="#F1C977"/>
</svg>
