<svg width="60" height="60" viewBox="0 0 60 60" fill="none" xmlns="http://www.w3.org/2000/svg">
<rect opacity="0.3" width="60" height="60" rx="30" fill="#85C0EA"/>
<rect x="9" y="9.00024" width="42" height="42" rx="21" fill="#85C0EA"/>
<path fill-rule="evenodd" clip-rule="evenodd" d="M27.3857 34.9268C32.5693 34.9268 36.7714 31.6852 36.7714 27.6864C36.7714 23.6877 32.5693 20.446 27.3857 20.446C22.2021 20.446 18 23.6877 18 27.6864C18 29.7541 19.1235 31.6193 20.9252 32.9386L20.1324 36.5112C20.0339 36.9547 20.5037 37.3077 20.9023 37.0897L25.2135 34.732C25.9107 34.8594 26.638 34.9268 27.3857 34.9268ZM24.9458 27.9433C24.9458 28.3814 24.5907 28.7365 24.1527 28.7365C23.7146 28.7365 23.3595 28.3814 23.3595 27.9433C23.3595 27.5053 23.7146 27.1502 24.1527 27.1502C24.5907 27.1502 24.9458 27.5053 24.9458 27.9433ZM27.8541 28.7365C28.2921 28.7365 28.6472 28.3814 28.6472 27.9433C28.6472 27.5053 28.2921 27.1502 27.8541 27.1502C27.416 27.1502 27.0609 27.5053 27.0609 27.9433C27.0609 28.3814 27.416 28.7365 27.8541 28.7365ZM32.3486 27.9433C32.3486 28.3814 31.9935 28.7365 31.5555 28.7365C31.1174 28.7365 30.7623 28.3814 30.7623 27.9433C30.7623 27.5053 31.1174 27.1502 31.5555 27.1502C31.9935 27.1502 32.3486 27.5053 32.3486 27.9433ZM27.8497 35.7612C27.5583 35.7371 27.4178 36.1199 27.6817 36.2459C29.115 36.9302 30.8048 37.3252 32.6143 37.3252C33.3291 37.3252 34.0252 37.2636 34.6942 37.1468C34.754 37.1364 34.8155 37.1462 34.8687 37.1753L39.0977 39.488C39.4963 39.706 39.9661 39.3531 39.8676 38.9096L39.1122 35.5055C39.0895 35.4031 39.1297 35.2972 39.2132 35.2335C40.9339 33.9211 42 32.099 42 30.0848C42 27.3233 39.9959 24.9228 37.0484 23.7017C36.7959 23.5971 36.5818 23.9193 36.7422 24.1406C37.5661 25.2768 38.0342 26.6381 38.0342 28.1321C38.0342 32.3666 33.2753 35.7993 28.7807 35.7993C28.4642 35.7993 28.1537 35.7864 27.8497 35.7612Z" fill="white"/>
</svg>
