<svg width="247" height="331" viewBox="0 0 247 331" fill="none" xmlns="http://www.w3.org/2000/svg">
<path opacity="0.5" d="M0.573884 293.599C-0.809208 287.004 0.256884 279.685 4.33258 274.215C7.53347 269.845 12.0266 266.67 16.6069 263.893C22.7582 260.154 29.2467 256.999 35.4157 253.283C41.5558 249.669 47.3979 245.393 51.9866 239.89C56.2765 234.889 59.4177 228.86 60.742 222.386C61.3691 218.642 61.9308 214.864 61.6876 211.055C61.4459 203.018 58.9199 195.29 55.9912 187.876C53.4772 181.553 50.9642 175.2 49.2666 168.595C47.3861 161.271 46.1904 153.725 46.3225 146.146C46.5009 139.059 47.9901 131.786 51.9785 125.818C55.255 120.761 60.3306 116.895 66.1188 115.209C72.9006 113.154 80.0903 113.745 87.061 114.063C94.2116 114.587 101.377 115.005 108.553 115.087C115.736 115.144 122.989 114.984 130.029 113.446C135.365 112.266 140.594 110.32 145.134 107.243C150.199 103.965 154.101 99.129 156.899 93.8189C160.422 87.0047 162.857 79.7016 166.018 72.7228C169.332 65.2773 173.239 58.0355 178.318 51.6388C181.541 47.5324 185.431 43.8768 190.068 41.4196C196.188 38.1071 203.069 36.7225 209.699 34.8093C215.697 33.1404 221.71 31.2362 227.081 28.0238C232.243 24.9622 237.035 21.186 240.967 16.6236C243.487 13.5843 245.686 10.0011 246.02 5.97039C246.438 4.0465 245.963 2.11024 245.804 0.188211C245.936 0.140595 246.206 0.0476278 246.338 2.14574e-07C246.845 2.63279 247.385 5.41677 246.616 8.04046C245.023 14.2132 240.516 19.0792 235.747 23.0454C230.89 27.1715 225.36 30.5503 219.372 32.7602C212.264 35.4574 204.782 36.9357 197.564 39.2743C192.356 41.0004 187.365 43.6186 183.425 47.4794C178.448 52.2666 174.655 58.1277 171.32 64.1371C167.845 70.5437 165.045 77.2898 162.362 84.0591C159.782 90.3301 157.139 96.7509 152.64 101.921C148.628 106.709 143.211 110.143 137.409 112.345C131.412 114.632 125.003 115.645 118.616 115.98C110.854 116.383 103.076 116.093 95.3243 115.654C87.9532 115.238 80.5659 114.375 73.1661 114.909C66.9118 115.351 60.5865 117.624 56.1449 122.184C50.6581 127.53 48.0397 135.178 47.3184 142.673C46.3832 156.46 49.8538 170.158 54.9552 182.871C57.523 189.419 60.2533 195.964 61.6009 202.897C63.0947 210.697 63.0648 218.91 60.5704 226.5C58.4646 233.29 54.3076 239.289 49.2734 244.229C40.2975 253.012 28.5435 257.933 17.912 264.297C12.8187 267.349 7.72312 270.812 4.42132 275.87C0.960022 281.182 0.246839 287.938 1.70435 294.041C3.25949 301.173 7.13209 307.663 12.226 312.825C20.3356 320.962 30.7654 326.847 41.9738 329.33C43.5354 329.707 45.1642 330.078 46.7768 329.782C46.6463 330.175 46.453 330.847 45.8971 330.694C39.5491 330.205 33.4445 328.094 27.7758 325.259C21.3269 321.995 15.3491 317.711 10.4396 312.381C5.5585 307.157 1.99316 300.637 0.586575 293.598L0.573884 293.599Z" fill="#F1C977"/>
</svg>
