<svg width="60" height="60" viewBox="0 0 60 60" fill="none" xmlns="http://www.w3.org/2000/svg">
<rect opacity="0.3" width="60" height="60" rx="30" fill="#85C0EA"/>
<rect x="9" y="9.00024" width="42" height="42" rx="21" fill="#85C0EA"/>
<path d="M40.7648 26.2152V18.8789C40.7648 18.3946 40.3702 18 39.8859 18H32.5496C32.0653 18 31.6706 18.3946 31.6706 18.8789V26.2152C31.6706 26.6996 32.0653 27.0942 32.5496 27.0942H39.8859C40.3702 27.0942 40.7648 26.6996 40.7648 26.2152ZM31.2267 36.1286L33.8993 31.5007C33.9711 31.3752 34.0727 31.2676 34.2043 31.1898C34.5929 30.9626 35.0952 31.1001 35.3164 31.4888L37.9711 36.0867C37.9711 36.0867 37.989 36.1166 37.995 36.1286L40.6437 40.7205C40.7334 40.852 40.7812 41.0075 40.7812 41.1809C40.7812 41.6353 40.4165 42 39.9621 42H29.2416C29.1041 42 28.9606 41.9641 28.8291 41.8864C28.4345 41.6592 28.3029 41.157 28.5301 40.7683L31.2088 36.1286H31.2267ZM22.8978 24.0389C24.4644 24.0389 25.8874 24.6726 26.9158 25.701C27.9442 26.7294 28.578 28.1525 28.578 29.719C28.578 31.2855 27.9442 32.7085 26.9158 33.7369C25.8874 34.7653 24.4644 35.3991 22.8978 35.3991C21.3313 35.3991 19.9083 34.7653 18.8799 33.7369C17.8515 32.7085 17.2177 31.2855 17.2177 29.719C17.2177 28.1525 17.8515 26.7294 18.8799 25.701C19.9083 24.6726 21.3313 24.0389 22.8978 24.0389Z" fill="white"/>
</svg>
