<svg width="30" height="24" viewBox="0 0 30 24" fill="none" xmlns="http://www.w3.org/2000/svg">
<path d="M29.9851 20.2933C30.0274 19.0352 29.9711 17.668 29.9218 16.6281L27.6335 16.3445C26.0634 16.2427 24.8735 15.21 23.5499 14.0537C23.2682 13.8137 22.4233 13.0574 22.1206 12.8756C20.98 12.1702 19.7056 13.2029 19.1423 13.9737C19.0367 14.1192 18.9733 14.2864 18.7339 14.2719L16.5372 14.141C15.4881 14.0755 15.0868 15.5227 16.0021 16.0463C16.2485 16.1918 16.2415 16.5772 15.9669 16.7008C15.2065 17.0208 15.1361 18.1117 15.8613 18.5334C16.1077 18.6789 16.1007 19.0643 15.8261 19.188C15.115 19.4934 15.2065 20.8169 16.2063 21.0206C16.5302 21.086 16.5935 21.5369 16.2978 21.6969C15.1713 22.3078 15.8824 23.6313 16.9315 23.6968L21.6277 23.9877C24.0568 24.1331 23.9371 22.9405 26.5985 23.1077L29.5275 23.2895C29.8232 22.6496 29.9499 21.5224 29.9851 20.2933ZM0.0758095 16.6281C0.00540142 18.1989 -0.170619 21.9223 0.477135 23.275L3.39907 23.0932C6.06049 22.9332 5.94784 24.1258 8.36988 23.9731L13.0661 23.6822C14.1152 23.6168 14.8263 22.2932 13.6998 21.6824C13.4041 21.5224 13.4745 21.0715 13.7983 21.006C14.7981 20.8024 14.8897 19.4788 14.1785 19.1734C13.904 19.0571 13.8899 18.6644 14.1363 18.5189C14.8685 18.0971 14.7911 17.0063 14.0307 16.6863C13.7561 16.5699 13.742 16.1772 13.9955 16.0318C14.9108 15.5009 14.5024 14.061 13.4604 14.1264L11.2636 14.2573C11.0313 14.2719 10.9609 14.0973 10.8553 13.9592C10.285 13.1956 9.01763 12.1629 7.87702 12.8611C7.58131 13.0429 6.72937 13.7919 6.44774 14.0392C5.11703 15.1955 3.93417 16.2281 2.36407 16.3299L0.0758095 16.6281ZM19.4662 1.90898C17.0019 -0.636326 13.0027 -0.636326 10.5314 1.90898C8.06712 4.45428 8.06712 8.58495 10.5314 11.1375C12.9957 13.6828 16.9949 13.6828 19.4662 11.1375C21.9375 8.58495 21.9375 4.45428 19.4662 1.90898ZM15.5867 6.4978C15.7698 6.09782 15.8965 5.56694 15.9458 4.96334H14.0659C14.1152 5.56694 14.2419 6.09782 14.425 6.4978C14.7981 7.32684 15.2065 7.32684 15.5867 6.4978ZM15.0023 9.23218H13.7843V10.5048H16.2274V9.23218H15.0023ZM15.3544 7.77772V8.50495H16.5724C16.7625 8.50495 16.9245 8.66494 16.9245 8.86857V10.5048H17.8116C18.2763 10.5048 18.2763 11.2321 17.8116 11.2321C15.9387 11.2321 14.0659 11.2321 12.186 11.2321C11.7213 11.2321 11.7213 10.5048 12.186 10.5048H13.0731V8.86857C13.0731 8.67221 13.228 8.50495 13.4252 8.50495H14.6503V7.77772C13.7068 7.39956 13.3688 5.71966 13.3407 4.607C13.3336 4.40338 13.4885 4.23611 13.6927 4.23611H16.3119C16.5161 4.23611 16.678 4.41065 16.6639 4.64336C16.6428 5.48695 16.4738 6.25054 16.2204 6.8105C15.9951 7.29048 15.6994 7.63955 15.3544 7.77772ZM14.6503 1.40719C14.6503 0.927218 15.3544 0.927218 15.3544 1.40719V2.59985C15.3544 3.07982 14.6503 3.07982 14.6503 2.59985V1.40719ZM12.6155 1.91625C12.4535 1.46537 13.1154 1.21811 13.2773 1.66172L13.6786 2.78165C13.8406 3.23254 13.1787 3.47979 13.0238 3.03618L12.6155 1.91625ZM10.8834 3.13072C10.7567 2.97801 10.7708 2.75256 10.9186 2.62166C11.0665 2.49076 11.2848 2.50531 11.4115 2.65802L12.1649 3.55979C12.2916 3.71251 12.2775 3.93795 12.1297 4.07612C11.9818 4.20702 11.7635 4.19248 11.6368 4.03976L10.8834 3.13072ZM16.7273 1.66172C16.8893 1.21084 17.544 1.46537 17.3821 1.91625L16.9808 3.03618C16.8188 3.47979 16.164 3.23254 16.326 2.78165L16.7273 1.66172ZM18.5931 2.65075C18.7199 2.49803 18.9452 2.48349 19.086 2.61439C19.2338 2.74529 19.2479 2.97073 19.1212 3.12345L18.3678 4.02522C18.2411 4.17793 18.0228 4.19248 17.875 4.06158C17.7271 3.93068 17.713 3.69796 17.8398 3.54524L18.5931 2.65075Z" fill="#76AB78"/>
</svg>
