<svg width="18" height="18" viewBox="0 0 18 18" fill="none" xmlns="http://www.w3.org/2000/svg">
<path d="M4.99509 16.9145L3.90171 17.9999L0 14.2254L2.79529 11.4703C3.3614 10.9082 4.07577 10.516 4.85622 10.339C5.63666 10.1619 6.45156 10.2072 7.20735 10.4693L7.8216 10.6824H11.5899C11.9119 10.6822 12.2202 10.8116 12.4444 11.0411C12.6685 11.2706 12.7894 11.5805 12.7794 11.9002C12.7613 12.2128 12.6223 12.5063 12.3913 12.7195C12.1604 12.9328 11.8553 13.0491 11.5399 13.0444H9.27938C9.02388 13.0444 8.8169 13.2499 8.8169 13.5036C8.8169 13.7571 9.02388 13.9628 9.27938 13.9628H11.5474C12.1006 13.9654 12.6337 13.7567 13.0363 13.3799C13.4388 13.0033 13.6801 12.4872 13.7099 11.9387V11.9094L15.8077 9.56371C16.0209 9.31823 16.321 9.16373 16.646 9.13221C16.9708 9.10069 17.2954 9.19473 17.5522 9.39473C17.809 9.60587 17.969 9.91105 17.9959 10.2411C18.0227 10.571 17.9141 10.8977 17.6947 11.147L13.5062 15.9226V15.9224C12.947 16.5589 12.1371 16.9235 11.2864 16.9217L4.99509 16.9145ZM13.6435 6.53131C13.6435 6.29992 13.551 6.07803 13.3862 5.91439C13.2215 5.75076 12.9979 5.65892 12.7649 5.65892H11.47V4.37324C11.4559 4.07139 11.2857 3.79811 11.0197 3.65101C10.7539 3.50392 10.4303 3.50392 10.1644 3.65101C9.89862 3.79809 9.72828 4.07136 9.71434 4.37324V5.65892H8.41929C8.17953 5.6479 7.94571 5.7349 7.77214 5.89953C7.59858 6.06416 7.50038 6.2921 7.50038 6.53038C7.50038 6.76867 7.59858 6.99675 7.77214 7.16137C7.9457 7.32587 8.17952 7.41287 8.41929 7.40198H9.71421V8.68766H9.71434C9.72828 8.98951 9.89861 9.26266 10.1644 9.40976C10.4303 9.55685 10.7539 9.55685 11.0197 9.40976C11.2857 9.26268 11.4559 8.98954 11.47 8.68766V7.40198H12.7649C12.9975 7.40198 13.2208 7.31024 13.3856 7.14702C13.5502 6.98379 13.6431 6.76239 13.6435 6.53129L13.6435 6.53131ZM5.21907 1.69708V2.6448H4.26635C4.03511 2.6448 3.82128 2.76742 3.70565 2.96626C3.5899 3.16523 3.5899 3.41019 3.70565 3.60918C3.82128 3.80803 4.0351 3.93064 4.26635 3.93064H5.22089V4.87836H5.22101C5.22101 5.10808 5.34438 5.32026 5.54465 5.43506C5.74505 5.54998 5.99191 5.54998 6.19219 5.43506C6.39247 5.32026 6.51596 5.10809 6.51596 4.87836V3.92693H7.46494C7.69632 3.92693 7.91002 3.80445 8.02564 3.60548C8.14139 3.40663 8.14139 3.16154 8.02564 2.96268C7.91002 2.76371 7.69632 2.64123 7.46494 2.64123H6.51041V1.69711C6.51041 1.46739 6.38692 1.25521 6.18664 1.14042C5.98624 1.02549 5.73952 1.02549 5.5391 1.14042C5.33883 1.25521 5.21546 1.46738 5.21546 1.69711L5.21907 1.69708ZM13.3865 0C13.2393 0 13.0981 0.0580376 12.9941 0.161305C12.89 0.264697 12.8315 0.404863 12.8315 0.550923V1.36653H12.0102C11.8119 1.36653 11.6286 1.47146 11.5295 1.64199C11.4304 1.81252 11.4304 2.02252 11.5295 2.19305C11.6286 2.36345 11.8118 2.4685 12.0102 2.4685H12.8315V3.28398C12.8315 3.4809 12.9373 3.66284 13.109 3.76124C13.2807 3.85964 13.4922 3.85964 13.664 3.76124C13.8357 3.66284 13.9414 3.48091 13.9414 3.28398V2.4685H14.7629C14.9611 2.4685 15.1443 2.36345 15.2434 2.19305C15.3427 2.02252 15.3427 1.81251 15.2434 1.64199C15.1443 1.47146 14.9611 1.36653 14.7629 1.36653H13.9414V0.550923C13.9414 0.404866 13.883 0.2647 13.779 0.161305C13.6748 0.0580409 13.5336 0 13.3865 0H13.3865Z" fill="#005C87" fill-opacity="0.6"/>
</svg>
