<svg width="24" height="36" viewBox="0 0 24 36" fill="none" xmlns="http://www.w3.org/2000/svg">
<path d="M16.2017 15.8569C13.8713 11.7512 11.4703 2.37632 7.54725 0.428093C5.02978 -0.749982 2.09799 0.637886 0.816448 2.96024C-1.4977 7.66838 1.56582 13.0301 4.30298 16.8202C6.60352 19.9994 9.31991 22.8454 12.0332 25.6703C15.0133 28.774 17.6128 32.3542 20.9323 35.1163C21.3162 35.4384 21.7258 35.7485 22.2036 35.8929C24.5449 36.5934 24.0254 33.6801 23.5424 32.3654C22.4997 29.5213 21.1539 26.8228 19.9041 24.0676C18.6803 21.3704 17.6619 18.43 16.1973 15.8546L16.2017 15.8569Z" fill="#F4AAA9"/>
</svg>
