<svg width="60" height="60" viewBox="0 0 60 60" fill="none" xmlns="http://www.w3.org/2000/svg">
<rect opacity="0.3" width="60" height="60" rx="30" fill="#85C0EA"/>
<rect x="9" y="9.00024" width="42" height="42" rx="21" fill="#85C0EA"/>
<path fill-rule="evenodd" clip-rule="evenodd" d="M38.0511 29.0686C38.0355 28.9212 37.9727 28.7828 37.872 28.6741C37.7713 28.5653 37.6381 28.492 37.4924 28.4652C36.8256 28.3352 36.3105 28.0001 36.0972 27.4845C35.8838 26.9689 36.0111 26.3654 36.3927 25.7998C36.477 25.6778 36.5195 25.5319 36.514 25.3838C36.5086 25.2357 36.4554 25.0933 36.3624 24.9779C35.9726 24.485 35.5272 24.0388 35.035 23.6482C34.9196 23.5548 34.7771 23.5012 34.6287 23.4956C34.4803 23.4899 34.334 23.5325 34.2118 23.6168C33.647 23.9997 33.0438 24.1274 32.5272 23.9134C32.0105 23.6995 31.6738 23.1809 31.5452 22.5095C31.5185 22.3633 31.4453 22.2297 31.3365 22.1285C31.2276 22.0273 31.089 21.964 30.9412 21.948C30.3178 21.8759 29.6881 21.8759 29.0646 21.948C28.9168 21.9637 28.778 22.0269 28.6691 22.1281C28.5602 22.2294 28.4871 22.3632 28.4607 22.5095C28.3331 23.1801 27.9961 23.6985 27.4787 23.9134C26.9613 24.1284 26.3587 23.9992 25.794 23.6168C25.6718 23.5325 25.5256 23.4899 25.3772 23.4956C25.2288 23.5012 25.0862 23.5548 24.9708 23.6482C24.4786 24.0388 24.0332 24.485 23.6435 24.9779C23.5504 25.0932 23.4971 25.2356 23.4916 25.3837C23.486 25.5319 23.5286 25.6778 23.6129 25.7998C23.9958 26.3642 24.1234 26.9668 23.9085 27.4845C23.6935 28.0021 23.1802 28.3342 22.5135 28.4652C22.3676 28.4921 22.2343 28.5655 22.1336 28.6745C22.0329 28.7834 21.9701 28.922 21.9547 29.0696C21.8842 29.6863 21.8842 30.3091 21.9547 30.9258C21.9705 31.073 22.0335 31.2112 22.1342 31.3197C22.2348 31.4283 22.3679 31.5014 22.5135 31.5282C23.1802 31.6581 23.6953 31.9933 23.9087 32.5089C24.1221 33.0245 23.9947 33.628 23.6131 34.1936C23.5289 34.3156 23.4863 34.4615 23.4918 34.6096C23.4973 34.7578 23.5506 34.9002 23.6438 35.0155C24.0335 35.5084 24.4789 35.9546 24.9711 36.3451C25.0865 36.4386 25.2291 36.4922 25.3775 36.4978C25.5259 36.5035 25.6721 36.4609 25.7943 36.3765C26.3592 35.9937 26.9623 35.866 27.479 36.0799C27.9956 36.2938 28.3323 36.8125 28.4609 37.4838C28.4873 37.6302 28.5604 37.764 28.6693 37.8652C28.7782 37.9665 28.917 38.0297 29.0649 38.0454C29.6883 38.1175 30.318 38.1175 30.9415 38.0454C31.0893 38.0294 31.2279 37.9661 31.3367 37.8649C31.4456 37.7637 31.5188 37.63 31.5454 37.4838C31.6731 36.813 32.01 36.2949 32.5274 36.0799C33.0448 35.865 33.6475 35.9942 34.2121 36.3765C34.3343 36.4609 34.4805 36.5035 34.6289 36.4978C34.7773 36.4922 34.9199 36.4386 35.0353 36.3451C35.5274 35.9545 35.9728 35.5083 36.3626 35.0155C36.4556 34.9001 36.5088 34.7577 36.5143 34.6096C36.5198 34.4615 36.4772 34.3156 36.393 34.1936C36.0101 33.6292 35.8825 33.0266 36.0974 32.5089C36.3123 31.9913 36.8256 31.6592 37.4924 31.5282C37.6383 31.5013 37.7716 31.4279 37.8723 31.3189C37.973 31.21 38.0357 31.0713 38.0511 30.9238C38.1218 30.3074 38.1218 29.685 38.0511 29.0686ZM33.1888 33.1825C32.4517 33.9198 31.4818 34.3787 30.4443 34.4809C29.4068 34.5832 28.3659 34.3226 27.4991 33.7435C26.6322 33.1644 25.993 32.3026 25.6903 31.305C25.3876 30.3074 25.4401 29.2357 25.8391 28.2725C26.238 27.3093 26.9585 26.5143 27.8779 26.0228C28.7973 25.5313 29.8587 25.3738 30.8811 25.5772C31.9036 25.7806 32.824 26.3322 33.4853 27.138C34.1467 27.9439 34.5082 28.9542 34.5082 29.9967C34.5089 30.5884 34.3927 31.1745 34.1663 31.7212C33.9399 32.268 33.6077 32.7646 33.1888 33.1825ZM36.8389 39.4457C36.8896 39.5201 36.9086 39.6115 36.8919 39.6999C36.8752 39.7883 36.8241 39.8664 36.7498 39.9172C34.337 41.5612 31.4074 42.2687 28.5102 41.9072C25.6131 41.5457 22.9472 40.14 21.0123 37.9535C19.0774 35.7671 18.0064 32.95 18 30.0303C17.9936 27.1107 19.0523 24.2889 20.9776 22.094H19.4826C19.3924 22.094 19.3059 22.0582 19.2422 21.9944C19.1784 21.9306 19.1426 21.8442 19.1426 21.754C19.1426 21.6638 19.1784 21.5773 19.2422 21.5136C19.3059 21.4498 19.3924 21.414 19.4826 21.414H21.7602C21.8504 21.414 21.9369 21.4498 22.0006 21.5136C22.0644 21.5773 22.1002 21.6638 22.1002 21.754V24.0316C22.1002 24.1218 22.0644 24.2083 22.0006 24.272C21.9369 24.3358 21.8504 24.3716 21.7602 24.3716C21.6701 24.3716 21.5836 24.3358 21.5198 24.272C21.4561 24.2083 21.4202 24.1218 21.4202 24.0316V22.6198C19.6301 24.7005 18.6571 27.3609 18.6824 30.1055C18.7078 32.8502 19.7298 35.4921 21.5581 37.5394C23.3864 39.5866 25.8964 40.8997 28.6208 41.234C31.3451 41.5683 34.0982 40.9011 36.3672 39.3566C36.4416 39.306 36.5331 39.2869 36.6215 39.3036C36.7099 39.3203 36.7881 39.3714 36.8389 39.4457ZM41.1321 34.481C40.6278 35.7306 39.9166 36.8862 39.0282 37.8994H40.5233C40.6134 37.8994 40.6999 37.9352 40.7637 37.999C40.8275 38.0627 40.8633 38.1492 40.8633 38.2394C40.8633 38.3296 40.8275 38.416 40.7637 38.4798C40.6999 38.5436 40.6134 38.5794 40.5233 38.5794H38.2456C38.1555 38.5794 38.069 38.5436 38.0052 38.4798C37.9415 38.416 37.9056 38.3296 37.9056 38.2394V35.9618C37.9056 35.8716 37.9415 35.7851 38.0052 35.7213C38.069 35.6576 38.1555 35.6218 38.2456 35.6218C38.3358 35.6218 38.4223 35.6576 38.486 35.7213C38.5498 35.7851 38.5856 35.8716 38.5856 35.9618V37.3736C40.3758 35.2929 41.3488 32.6325 41.3234 29.8878C41.2981 27.1432 40.2761 24.5012 38.4478 22.454C36.6195 20.4067 34.1095 19.0937 31.3851 18.7594C28.6607 18.4251 25.9077 19.0923 23.6387 20.6367C23.6018 20.6619 23.5603 20.6795 23.5166 20.6886C23.4729 20.6977 23.4279 20.6982 23.384 20.6899C23.3402 20.6816 23.2984 20.6647 23.2611 20.6403C23.2237 20.6158 23.1916 20.5843 23.1664 20.5474C23.1413 20.5105 23.1237 20.4691 23.1145 20.4254C23.1054 20.3817 23.105 20.3366 23.1133 20.2928C23.1216 20.2489 23.1384 20.2071 23.1629 20.1698C23.1873 20.1325 23.2189 20.1003 23.2558 20.0752C25.3832 18.6295 27.9188 17.9057 30.4887 18.0104C33.0587 18.1152 35.527 19.0429 37.5298 20.6568C39.5325 22.2707 40.9637 24.4855 41.6122 26.9744C42.2608 29.4634 42.0925 32.095 41.1321 34.481ZM30.0029 26.1714C29.118 26.1718 28.2606 26.4791 27.5769 27.0407C26.8931 27.6024 26.4252 28.3838 26.2529 29.2518C26.0806 30.1198 26.2146 31.0206 26.6321 31.8009C27.0495 32.5811 27.7246 33.1925 28.5423 33.5308C29.36 33.8692 30.2696 33.9135 31.1163 33.6563C31.9631 33.3992 32.6944 32.8564 33.1858 32.1204C33.6772 31.3845 33.8982 30.501 33.8112 29.6204C33.7242 28.7397 33.3345 27.9165 32.7086 27.291C32.3536 26.9353 31.9319 26.6533 31.4675 26.4612C31.0032 26.269 30.5054 26.1706 30.0029 26.1714ZM32.1399 29.2794L29.2721 31.273C29.1987 31.3238 29.1081 31.3437 29.0201 31.3282C28.9321 31.3128 28.8537 31.2633 28.802 31.1905L27.7835 29.7583C27.7577 29.722 27.7393 29.681 27.7293 29.6376C27.7193 29.5942 27.718 29.5493 27.7254 29.5054C27.7328 29.4615 27.7488 29.4195 27.7724 29.3818C27.796 29.3441 27.8269 29.3114 27.8631 29.2855C27.8994 29.2597 27.9404 29.2413 27.9838 29.2314C28.0272 29.2214 28.0721 29.2201 28.116 29.2275C28.1599 29.2349 28.2019 29.2508 28.2396 29.2745C28.2773 29.2981 28.31 29.3289 28.3359 29.3652L29.1606 30.5225L31.7522 28.7204C31.8262 28.6697 31.9173 28.6503 32.0055 28.6665C32.0938 28.6826 32.1721 28.7331 32.2233 28.8068C32.2745 28.8805 32.2945 28.9714 32.2788 29.0598C32.2632 29.1481 32.2133 29.2267 32.1399 29.2784V29.2794Z" fill="white"/>
</svg>
