<svg width="60" height="60" viewBox="0 0 60 60" fill="none" xmlns="http://www.w3.org/2000/svg">
<rect opacity="0.3" width="60" height="60" rx="30" fill="#85C0EA"/>
<rect x="9" y="9.00024" width="42" height="42" rx="21" fill="#85C0EA"/>
<path d="M19.6649 24.2709H21.2782C21.4089 24.8016 21.7137 25.2733 22.144 25.6105C22.5743 25.9477 23.1051 26.1309 23.6518 26.1309C24.1984 26.1309 24.7293 25.9477 25.1595 25.6105C25.5898 25.2733 25.8946 24.8016 26.0253 24.2709H40.3351C40.5114 24.2709 40.6806 24.2008 40.8053 24.0761C40.9299 23.9514 41 23.7823 41 23.606C41 23.4296 40.9299 23.2605 40.8053 23.1358C40.6806 23.0111 40.5114 22.9411 40.3351 22.9411H26.0253C25.8946 22.4103 25.5898 21.9386 25.1595 21.6015C24.7293 21.2643 24.1984 21.0811 23.6518 21.0811C23.1051 21.0811 22.5743 21.2643 22.144 21.6015C21.7137 21.9386 21.4089 22.4103 21.2782 22.9411H19.6649C19.4885 22.9411 19.3194 23.0111 19.1947 23.1358C19.0701 23.2605 19 23.4296 19 23.606C19 23.7823 19.0701 23.9514 19.1947 24.0761C19.3194 24.2008 19.4885 24.2709 19.6649 24.2709Z" fill="white"/>
<path d="M40.3351 29.3351H38.7218C38.5911 28.8043 38.2863 28.3327 37.856 27.9955C37.4257 27.6583 36.8949 27.4751 36.3482 27.4751C35.8016 27.4751 35.2707 27.6583 34.8405 27.9955C34.4102 28.3327 34.1054 28.8043 33.9747 29.3351H19.6649C19.4885 29.3351 19.3194 29.4052 19.1947 29.5299C19.0701 29.6546 19 29.8237 19 30C19 30.1764 19.0701 30.3455 19.1947 30.4702C19.3194 30.5949 19.4885 30.6649 19.6649 30.6649H33.9747C34.1054 31.1957 34.4102 31.6674 34.8405 32.0045C35.2707 32.3417 35.8016 32.5249 36.3482 32.5249C36.8949 32.5249 37.4257 32.3417 37.856 32.0045C38.2863 31.6674 38.5911 31.1957 38.7218 30.6649H40.3351C40.5114 30.6649 40.6806 30.5949 40.8053 30.4702C40.9299 30.3455 41 30.1764 41 30C41 29.8237 40.9299 29.6546 40.8053 29.5299C40.6806 29.4052 40.5114 29.3351 40.3351 29.3351Z" fill="white"/>
<path d="M40.3351 35.7299H26.0253C25.8946 35.1991 25.5898 34.7274 25.1595 34.3903C24.7293 34.0531 24.1984 33.8699 23.6518 33.8699C23.1051 33.8699 22.5743 34.0531 22.144 34.3903C21.7137 34.7274 21.4089 35.1991 21.2782 35.7299H19.6649C19.4885 35.7299 19.3194 35.8 19.1947 35.9246C19.0701 36.0493 19 36.2185 19 36.3948C19 36.5711 19.0701 36.7402 19.1947 36.8649C19.3194 36.9896 19.4885 37.0597 19.6649 37.0597H21.2782C21.4089 37.5905 21.7137 38.0621 22.144 38.3993C22.5743 38.7365 23.1051 38.9197 23.6518 38.9197C24.1984 38.9197 24.7293 38.7365 25.1595 38.3993C25.5898 38.0621 25.8946 37.5905 26.0253 37.0597H40.3351C40.5114 37.0597 40.6806 36.9896 40.8053 36.8649C40.9299 36.7402 41 36.5711 41 36.3948C41 36.2185 40.9299 36.0493 40.8053 35.9246C40.6806 35.8 40.5114 35.7299 40.3351 35.7299Z" fill="white"/>
</svg>
