<svg width="365" height="373" viewBox="0 0 365 373" fill="none" xmlns="http://www.w3.org/2000/svg">
<g clip-path="url(#clip0_2_10653)">
<path opacity="0.5" d="M312.319 124.954C308.087 120.181 301.918 116.865 295.449 116.883C290.313 116.856 285.354 118.487 280.649 120.409C274.321 122.984 268.248 126.146 261.928 128.747C255.702 131.385 249.142 133.422 242.358 133.812C236.125 134.258 229.762 133.25 224.089 130.607C220.887 128.973 217.695 127.269 214.936 124.936C208.961 120.219 204.515 113.937 200.535 107.525C197.151 102.044 193.742 96.5464 189.68 91.5282C185.175 85.9651 180.114 80.7985 174.276 76.6244C168.786 72.7631 162.411 69.7948 155.614 69.4659C149.912 69.1085 144.098 70.7931 139.537 74.25C134.134 78.2555 130.512 84.0639 126.806 89.5516C123.155 95.2925 119.415 100.985 115.414 106.496C111.389 111.998 107.16 117.431 102.003 121.925C98.0837 125.323 93.6421 128.207 88.7313 129.93C83.37 131.938 77.4825 132.181 71.8597 131.317C64.6825 130.156 57.75 127.891 50.6526 126.362C43.1135 124.686 35.3935 123.577 27.6525 123.837C22.7047 123.975 17.7213 124.876 13.2269 127.021C7.24168 129.813 2.29194 134.272 -2.91795 138.242C-7.58371 141.868 -12.4371 145.373 -17.9217 147.651C-23.1737 149.856 -28.7592 151.375 -34.4555 151.796C-38.194 152.001 -42.1643 151.654 -45.4184 149.635C-47.1183 148.868 -48.3219 147.415 -49.6937 146.21C-49.8048 146.283 -50.0282 146.436 -50.1393 146.51C-48.424 148.381 -46.6125 150.362 -44.1818 151.257C-38.5854 153.525 -32.3326 152.838 -26.6155 151.443C-20.7269 150.071 -15.0258 147.766 -9.95402 144.452C-3.87762 140.561 1.48384 135.697 7.35003 131.519C11.612 128.527 16.43 126.203 21.5971 125.38C28.0565 124.29 34.6619 124.707 41.1202 125.558C47.9607 126.524 54.6764 128.197 61.3436 129.973C67.574 131.544 73.9535 133.154 80.4335 132.643C86.3466 132.289 92.0262 130.101 96.986 126.924C102.121 123.647 106.522 119.338 110.394 114.663C115.096 108.98 119.281 102.892 123.336 96.7419C127.195 90.8941 130.722 84.7815 135.318 79.4474C139.197 74.9342 144.508 71.3995 150.49 70.5888C157.663 69.426 164.962 71.7455 171.07 75.4235C182.085 82.4876 190.537 92.8572 197.315 103.912C200.841 109.561 204.272 115.332 208.781 120.268C213.867 125.806 220.13 130.415 227.315 132.797C233.67 135.023 240.587 135.241 247.194 134.193C258.957 132.312 269.356 126.137 280.217 121.63C285.422 119.473 290.941 117.546 296.658 117.884C302.658 118.244 308.2 121.512 312.015 126.064C316.558 131.271 319.3 137.881 320.341 144.672C321.937 155.437 320.505 166.698 316.046 176.635C315.448 178.036 314.809 179.486 313.67 180.547C314.043 180.669 314.663 180.902 314.862 180.392C318.085 175.282 319.937 169.442 320.991 163.526C322.161 156.774 322.289 149.806 321.016 143.061C319.807 136.397 316.868 130.005 312.311 124.963L312.319 124.954Z" fill="#F1C977"/>
</g>
<defs>
<clipPath id="clip0_2_10653">
<rect width="281.084" height="262" fill="white" transform="translate(365 125.539) scale(1.00118) rotate(118.594)"/>
</clipPath>
</defs>
</svg>
