<svg width="296" height="177" viewBox="0 0 296 177" fill="none" xmlns="http://www.w3.org/2000/svg">
<path fill-rule="evenodd" clip-rule="evenodd" d="M62.9647 62.5659C62.8813 61.8612 61.2978 58.7245 60.9644 57.9062C57.3805 50.2007 53.9632 42.336 50.3794 34.6305C48.8791 31.4482 47.7955 27.4249 43.7117 27.4249C39.711 27.4249 38.7942 31.1755 37.3773 34.1532L29.2094 52.2236C28.7093 53.2465 25.3754 60.9293 24.9587 61.2702C24.8754 60.702 24.2085 59.5882 23.9585 58.9973C23.6251 58.2244 23.2084 57.497 22.9584 56.7469C21.7081 53.8375 20.1246 50.5644 18.7911 47.7003C18.6244 47.3366 18.541 46.9276 18.3743 46.5411C18.1243 46.1547 18.041 45.8365 17.7908 45.4273C17.4575 44.6317 17.1241 43.9499 16.7907 43.1997C16.374 42.4496 16.124 41.6996 15.7906 40.9041L12.6234 34.1532C11.1231 30.8346 10.373 27.4249 6.03903 27.4249C3.28864 27.4249 1.37166 29.8798 1.03829 32.562C0.704928 34.7895 2.70512 38.1537 3.62201 40.0858L17.9576 71.7261C19.6245 75.272 20.7914 79.9999 24.9587 79.9999C28.876 79.9999 30.0428 76.5677 31.3764 73.3627C32.2931 70.9078 34.5435 66.7255 35.4604 64.3388C36.0438 62.7932 36.8772 61.3611 37.544 59.8383L40.6278 53.0419C40.9612 52.2464 41.2945 51.5645 41.628 50.8144C41.9614 50.0643 42.2948 49.3141 42.6281 48.5186C42.9615 47.9276 43.5449 46.7457 43.7117 46.1547C44.1284 46.4729 44.5451 47.7231 44.7951 48.3141L55.1301 70.9988C55.9635 72.7263 57.2971 76.3858 58.2972 77.7723C60.4642 80.9092 65.0482 80.6137 67.0486 77.3178L69.7158 72.6808C70.1325 71.8853 70.5492 71.1806 71.0492 70.385C71.4659 69.5667 71.8828 68.8394 72.3828 68.0666C73.2996 66.4982 74.1331 64.9981 75.0499 63.4296L85.7182 45.0409C86.7185 43.518 87.4685 42.0178 88.3853 40.4948L95.053 28.9707C95.5532 28.1524 95.9699 27.425 96.4699 26.6523L105.805 10.5592C106.555 9.19543 106.722 8.4453 106.722 6.76329C106.722 4.19483 104.138 1.60352 101.721 1.60352C99.8038 1.60352 98.3036 2.37637 97.22 3.78562C96.1366 5.3086 87.8852 20.0605 85.8849 23.3564L82.4678 29.2434C82.0509 29.8798 81.6342 30.5391 81.3009 31.2436L76.2168 39.9948C73.6329 44.6317 70.7992 49.0641 68.2155 53.6783C68.0488 54.0875 67.8821 54.3603 67.6321 54.7239L64.2148 60.6111C63.9648 61.0429 63.2981 62.3386 62.9647 62.5659Z" fill="white"/>
<path fill-rule="evenodd" clip-rule="evenodd" d="M199.646 54.2234C199.646 51.3366 199.813 49.4274 201.063 46.8133C201.896 45.0176 202.73 43.9038 203.98 42.5627C208.564 37.5621 216.232 37.062 221.733 41.0172C227.401 45.0859 229.484 53.6324 226.567 59.8149C226.15 60.7697 225.9 61.3379 225.317 62.2016C225.067 62.5425 224.817 62.929 224.567 63.2245C223.317 64.7019 223.567 64.5202 221.9 65.884C219.649 67.6569 216.982 68.4297 213.982 68.6798C212.565 68.7934 209.564 68.0661 208.231 67.475C206.731 66.7932 205.73 66.043 204.564 64.9747C203.98 64.4975 203.73 64.3156 203.147 63.5882C202.897 63.1564 202.647 62.9518 202.397 62.5198C201.896 61.7926 201.48 61.0651 201.063 60.2014C200.396 58.7467 199.646 56.3373 199.646 54.2234ZM188.978 6.6945V74.7487C188.978 78.1127 193.312 82.0906 197.646 78.681C198.729 77.84 199.229 76.6353 199.479 75.2715C200.48 75.5443 207.314 81.9769 219.066 79.3857C220.733 79.022 222.233 78.4537 223.733 77.7718C225.233 77.0217 226.317 76.3853 227.651 75.4305C231.568 72.6575 234.068 69.2026 236.152 64.8611C239.236 58.1783 239.319 48.9273 236.152 42.2445C234.735 39.176 234.318 38.6304 232.568 36.2893C228.734 31.1977 221.65 26.9698 213.648 26.9698C210.064 26.9698 206.897 27.811 204.064 29.0838C201.98 30.0158 200.896 30.9477 199.479 31.7432C199.479 25.7652 199.479 19.7871 199.479 13.8091C199.479 11.6042 199.813 6.71736 199.229 5.17166C197.896 1.10294 193.228 0.239219 190.645 2.98956C189.895 3.76242 188.978 5.19438 188.978 6.6945Z" fill="white"/>
<path fill-rule="evenodd" clip-rule="evenodd" d="M255.993 53.4338C255.993 42.0461 267.994 33.8178 278.246 41.0232C287.664 47.6831 286.247 64.7307 273.329 68.2312C270.245 69.0722 266.828 68.4812 264.411 67.2766C259.243 64.7307 255.993 59.5483 255.993 53.4338ZM245.407 53.4338C245.407 60.4348 247.491 65.3672 251.158 70.3905C251.408 70.8225 251.575 70.9133 251.909 71.277C252.992 72.7318 254.492 74.0956 255.993 75.164C257.743 76.5049 258.076 76.5959 259.993 77.6188C261.077 78.2552 263.077 78.9598 264.494 79.3008C267.994 80.1646 270.828 80.1873 274.412 79.5963C279.746 78.7326 283.914 75.4139 284.497 75.2548C284.58 77.6415 286.998 80.1418 290.165 79.9145C292.748 79.7326 294.749 77.4824 294.999 74.5501V73.9592V33.0222V32.4767C294.665 27.0669 288.915 25.5439 286.247 28.408C285.414 29.2717 284.497 30.3627 284.497 31.7265L281.58 29.9308C278.746 28.1352 273.662 26.9531 270.161 26.9531C256.576 26.9531 245.407 38.9092 245.407 53.4338Z" fill="white"/>
<path fill-rule="evenodd" clip-rule="evenodd" d="M103.883 53.5816C103.883 51.1495 104.466 49.172 105.133 47.3989C105.467 46.6488 105.883 45.6715 106.383 44.9895C107.05 43.9666 108.05 42.8528 108.884 41.9891C111.051 39.8297 114.885 38.3523 118.052 38.3523C120.302 38.3523 122.136 38.9433 123.803 39.6707C124.636 40.0116 125.303 40.489 126.053 41.0118C131.804 45.126 133.971 53.4452 130.804 60.2415C128.804 64.3557 125.553 67.106 121.386 68.2425L118.135 68.6972C115.468 68.7653 112.384 67.6288 110.134 66.0377C106.383 63.3782 103.883 58.5141 103.883 53.5816ZM93.2981 53.4679C93.2981 57.3774 94.2982 61.6962 95.4651 64.3102L96.4652 66.4696C96.8819 67.2196 97.2153 67.8107 97.7155 68.5153C97.9655 68.9018 98.0488 69.1517 98.2988 69.5154L100.466 72.2204C107.717 79.9486 118.802 82.1761 128.137 77.7438C129.637 77.0391 130.804 76.2662 132.138 75.357C132.804 74.8797 133.304 74.4479 133.888 73.9251C134.305 73.5842 134.388 73.4704 134.721 73.1295C135.555 72.2203 134.971 72.9931 136.222 71.5157C136.472 71.1747 136.722 70.9928 136.972 70.6519C137.472 70.0155 137.888 69.4244 138.389 68.7426C142.723 61.9917 144.223 53.0588 141.639 45.1487C140.972 43.1485 140.639 42.3529 139.722 40.5799C139.555 40.1935 139.305 39.898 139.139 39.5343C137.388 36.3748 135.138 33.9881 132.304 31.8515C131.971 31.556 131.804 31.4197 131.387 31.1696C129.554 29.9876 128.387 29.2603 126.22 28.4647C109.884 22.5094 93.2981 35.5111 93.2981 53.4679Z" fill="white"/>
<path fill-rule="evenodd" clip-rule="evenodd" d="M149.392 7.44513V74.0672C149.392 77.4086 151.726 79.9999 154.226 79.9999C156.143 79.9999 157.143 79.8634 158.56 78.2951C159.31 77.4541 160.06 76.0903 160.06 74.4537V7.17236C160.06 6.05859 159.644 4.83109 159.143 4.0128L158.56 3.21724C158.393 2.96734 158.143 2.83088 157.893 2.62627C157.56 2.33079 157.477 2.30807 157.06 2.10347C153.559 0.194127 149.392 2.92176 149.392 7.44513Z" fill="white"/>
<path fill-rule="evenodd" clip-rule="evenodd" d="M17.0403 28.6471C17.0403 30.206 17.1235 31.0275 17.7892 32.3968C20.2857 37.3472 26.8595 38.4005 30.5208 34.672C35.3473 29.8058 32.7676 22.5591 26.7763 21.1055C24.1134 20.4736 21.2842 21.3583 19.4535 23.1699C18.7878 23.8651 18.2053 24.5182 17.7892 25.4661C17.3731 26.3509 17.0403 27.4042 17.0403 28.6471Z" fill="#85C0EA"/>
<path fill-rule="evenodd" clip-rule="evenodd" d="M56.384 28.4361C56.384 31.1319 56.8825 32.7325 58.7927 34.6279C62.6962 38.5032 69.1744 37.1974 71.5001 32.5008C73.9087 27.7831 71.3339 21.5702 64.5234 20.9173C62.7792 20.7489 60.1215 21.8651 58.9588 23.0866C57.5469 24.4345 56.384 26.2879 56.384 28.4361Z" fill="#85C0EA"/>
<path fill-rule="evenodd" clip-rule="evenodd" d="M168.517 22.207V75.0092C168.517 78.2142 173.85 82.2601 178.612 78.4641C179.565 77.7368 180.517 76.0094 180.517 74.7592V22.3434C180.517 18.2293 174.517 15.1152 170.422 18.5475C169.469 19.3203 168.517 20.9113 168.517 22.207Z" fill="white"/>
<path fill-rule="evenodd" clip-rule="evenodd" d="M168.517 5.68622C168.517 9.32451 171.003 12.0042 174.603 12.0042C177.688 12.0042 180.517 9.3026 180.517 6.18731C180.517 5.03256 180.431 4.48793 179.917 3.42042C179.06 1.67748 177.088 0 175.031 0C173.06 0 171.603 0.217887 170.145 1.78649C169.288 2.65789 168.517 4.03038 168.517 5.68622Z" fill="white"/>
<path d="M151.554 109.799L151.554 109.799C150.392 112.144 147.157 112.796 145.208 110.861C144.731 110.387 144.43 109.951 144.249 109.465C144.067 108.979 144.005 108.442 144.005 107.769C144.005 106.696 144.585 105.771 145.291 105.097L145.291 105.097L145.291 105.097C145.581 104.793 146.058 104.501 146.571 104.296C147.085 104.09 147.634 103.972 148.069 104.014L148.069 104.014C149.77 104.177 150.942 105.035 151.538 106.145C152.134 107.256 152.155 108.621 151.554 109.799ZM151.558 109.801C152.762 107.442 151.475 104.336 148.07 104.009L145.287 105.094C144.581 105.768 144 106.694 144 107.769C144 109.116 144.249 109.917 145.204 110.864C147.156 112.802 150.395 112.149 151.558 109.801Z" fill="#85C0EA" stroke="#85C0EA" stroke-width="0.01"/>
<line x1="60" y1="108.285" x2="140" y2="108.285" stroke="#F1C977" stroke-width="2"/>
<line x1="156" y1="108.285" x2="236" y2="108.285" stroke="#F1C977" stroke-width="2"/>
<path fill-rule="evenodd" clip-rule="evenodd" d="M40 156.004C40 144.959 31.0462 136.004 19.9999 136.004C8.95376 136.004 0 144.959 0 156.004C0 167.05 8.95362 176.004 19.9999 176.004C31.0462 176.004 40 167.05 40 156.004ZM25.0119 149.773H22.4344C21.7405 149.773 21.2531 150.36 21.2531 151.093V152.242H24.9343L24.3381 155.97H21.2519V165.965H17.4843V155.97H14.9844V152.242H17.4843V150.34H17.4919C17.5582 148.173 18.3106 146.109 21.9819 145.979V145.965H25.0119V149.773Z" fill="white"/>
<g clip-path="url(#clip0_2_10280)">
<path d="M81.5078 152.257L88.0135 156.004L81.5078 159.751V152.257Z" fill="white"/>
<path d="M84 176.004C72.956 176.004 64 167.048 64 156.004C64 144.96 72.956 136.004 84 136.004C95.044 136.004 104 144.96 104 156.004C104 167.048 95.044 176.004 84 176.004ZM96.4969 155.983C96.4969 155.983 96.4969 151.927 95.9824 149.971C95.694 148.901 94.8499 148.057 93.7794 147.768C91.8235 147.254 84 147.254 84 147.254C84 147.254 76.197 147.254 74.2206 147.789C73.1501 148.077 72.306 148.921 72.0176 149.992C71.5027 151.927 71.5027 156.004 71.5027 156.004C71.5027 156.004 71.5027 160.059 72.0176 162.015C72.3057 163.086 73.1705 163.951 74.2206 164.239C76.1765 164.754 84 164.754 84 164.754C84 164.754 91.8235 164.754 93.7794 164.218C94.8499 163.93 95.694 163.086 95.9824 162.015C96.5177 160.059 96.4969 155.983 96.4969 155.983Z" fill="white"/>
</g>
<path d="M148 136.004C136.956 136.004 128 144.96 128 156.004C128 167.048 136.956 176.004 148 176.004C159.044 176.004 168 167.048 168 156.004C168 144.96 159.044 136.004 148 136.004ZM157.132 151.598C157.141 151.794 157.145 151.992 157.145 152.191C157.145 158.257 152.528 165.252 144.084 165.252H144.084H144.084C141.491 165.252 139.079 164.492 137.047 163.19C137.406 163.232 137.772 163.253 138.142 163.253C140.293 163.253 142.272 162.52 143.844 161.288C141.834 161.251 140.14 159.924 139.555 158.1C139.835 158.154 140.123 158.183 140.418 158.183C140.837 158.183 141.243 158.126 141.629 158.021C139.528 157.601 137.946 155.744 137.946 153.521C137.946 153.501 137.946 153.482 137.946 153.463C138.565 153.807 139.272 154.014 140.025 154.037C138.793 153.214 137.983 151.808 137.983 150.216C137.983 149.375 138.21 148.587 138.604 147.908C140.868 150.686 144.251 152.513 148.067 152.705C147.988 152.368 147.947 152.018 147.947 151.658C147.947 149.124 150.003 147.068 152.538 147.068C153.859 147.068 155.051 147.626 155.889 148.518C156.935 148.312 157.917 147.93 158.804 147.404C158.461 148.476 157.733 149.375 156.785 149.943C157.714 149.832 158.599 149.586 159.422 149.22C158.807 150.141 158.028 150.95 157.132 151.598Z" fill="white"/>
<path d="M212 136.004C200.956 136.004 192 144.96 192 156.004C192 167.048 200.956 176.004 212 176.004C223.044 176.004 232 167.048 232 156.004C232 144.96 223.044 136.004 212 136.004ZM206.188 166.238H201.317V151.584H206.188V166.238ZM203.753 149.583H203.721C202.087 149.583 201.03 148.458 201.03 147.051C201.03 145.613 202.119 144.519 203.785 144.519C205.452 144.519 206.477 145.613 206.509 147.051C206.509 148.458 205.452 149.583 203.753 149.583ZM223.752 166.238H218.881V158.398C218.881 156.428 218.176 155.084 216.414 155.084C215.068 155.084 214.267 155.991 213.915 156.866C213.786 157.179 213.754 157.617 213.754 158.054V166.238H208.884C208.884 166.238 208.948 152.959 208.884 151.584H213.754V153.659C214.402 152.66 215.56 151.24 218.144 151.24C221.349 151.24 223.752 153.334 223.752 157.835V166.238Z" fill="white"/>
<path d="M279.828 156.004C279.828 158.118 278.114 159.832 276 159.832C273.886 159.832 272.172 158.118 272.172 156.004C272.172 153.889 273.886 152.176 276 152.176C278.114 152.176 279.828 153.889 279.828 156.004Z" fill="white"/>
<path d="M284.951 149.23C284.767 148.732 284.474 148.28 284.092 147.91C283.722 147.528 283.271 147.235 282.772 147.051C282.367 146.894 281.759 146.706 280.639 146.656C279.428 146.6 279.065 146.588 275.999 146.588C272.932 146.588 272.569 146.6 271.358 146.655C270.238 146.706 269.63 146.894 269.225 147.051C268.727 147.235 268.275 147.528 267.905 147.91C267.524 148.28 267.23 148.731 267.046 149.23C266.888 149.635 266.701 150.243 266.65 151.363C266.595 152.574 266.583 152.937 266.583 156.004C266.583 159.07 266.595 159.433 266.65 160.644C266.701 161.764 266.888 162.372 267.046 162.777C267.23 163.276 267.523 163.727 267.905 164.097C268.275 164.479 268.726 164.772 269.225 164.956C269.63 165.114 270.238 165.301 271.358 165.352C272.569 165.407 272.932 165.419 275.998 165.419C279.065 165.419 279.429 165.407 280.639 165.352C281.759 165.301 282.367 165.114 282.772 164.956C283.773 164.57 284.565 163.778 284.951 162.777C285.108 162.372 285.296 161.764 285.347 160.644C285.402 159.433 285.414 159.07 285.414 156.004C285.414 152.937 285.402 152.574 285.347 151.363C285.296 150.243 285.109 149.635 284.951 149.23ZM275.999 161.901C272.741 161.901 270.101 159.26 270.101 156.003C270.101 152.746 272.741 150.106 275.999 150.106C279.255 150.106 281.896 152.746 281.896 156.003C281.896 159.26 279.255 161.901 275.999 161.901ZM282.129 151.251C281.368 151.251 280.751 150.634 280.751 149.873C280.751 149.112 281.368 148.495 282.129 148.495C282.89 148.495 283.507 149.112 283.507 149.873C283.507 150.634 282.89 151.251 282.129 151.251Z" fill="white"/>
<path d="M276 136.004C264.956 136.004 256 144.96 256 156.004C256 167.048 264.956 176.004 276 176.004C287.044 176.004 296 167.048 296 156.004C296 144.96 287.044 136.004 276 136.004ZM287.415 160.738C287.36 161.961 287.165 162.796 286.881 163.526C286.285 165.069 285.065 166.288 283.523 166.885C282.792 167.169 281.957 167.363 280.735 167.419C279.51 167.475 279.119 167.488 276 167.488C272.881 167.488 272.49 167.475 271.265 167.419C270.043 167.363 269.208 167.169 268.478 166.885C267.711 166.597 267.017 166.145 266.443 165.56C265.859 164.987 265.407 164.293 265.119 163.526C264.835 162.796 264.641 161.961 264.585 160.739C264.529 159.514 264.516 159.123 264.516 156.004C264.516 152.885 264.529 152.494 264.585 151.269C264.64 150.046 264.835 149.212 265.118 148.481C265.407 147.715 265.859 147.021 266.443 146.447C267.017 145.863 267.711 145.411 268.477 145.122C269.208 144.839 270.043 144.644 271.265 144.589C272.49 144.533 272.881 144.519 276 144.519C279.119 144.519 279.51 144.533 280.735 144.589C281.957 144.644 282.792 144.839 283.523 145.122C284.289 145.41 284.983 145.863 285.557 146.447C286.141 147.021 286.593 147.715 286.881 148.481C287.165 149.212 287.36 150.046 287.415 151.269C287.471 152.494 287.484 152.885 287.484 156.004C287.484 159.123 287.471 159.514 287.415 160.738Z" fill="white"/>
<defs>
<clipPath id="clip0_2_10280">
<rect width="40" height="40" fill="white" transform="matrix(1 0 0 -1 64 176.004)"/>
</clipPath>
</defs>
</svg>
