<svg width="60" height="60" viewBox="0 0 60 60" fill="none" xmlns="http://www.w3.org/2000/svg">
<rect opacity="0.3" width="60" height="60" rx="30" fill="#85C0EA"/>
<rect x="9" y="9.00024" width="42" height="42" rx="21" fill="#85C0EA"/>
<path fill-rule="evenodd" clip-rule="evenodd" d="M25.1611 36.7165C25.1274 36.7148 25.0945 36.7063 25.0642 36.6916C25.0339 36.6769 25.007 36.6562 24.9849 36.6308C24.9628 36.6054 24.946 36.5758 24.9356 36.5438C24.9252 36.5117 24.9214 36.4779 24.9244 36.4444C24.941 35.7901 25.0194 35.1388 25.1583 34.4991C24.633 34.7233 24.0672 34.8372 23.496 34.8338C23.4585 34.843 23.4193 34.8434 23.3816 34.8349C23.3438 34.8265 23.3086 34.8094 23.2786 34.785C23.2485 34.7606 23.2246 34.7297 23.2085 34.6945C23.1925 34.6593 23.1849 34.6209 23.1862 34.5822C23.1875 34.5436 23.1977 34.5058 23.2161 34.4717C23.2345 34.4377 23.2605 34.4084 23.2921 34.3861C23.3237 34.3639 23.36 34.3492 23.3982 34.3433C23.4364 34.3374 23.4755 34.3405 23.5123 34.3522C24.6142 34.3876 25.7596 33.8489 26.2711 32.8477C26.2859 32.8186 26.3063 32.7927 26.3312 32.7714C26.356 32.7502 26.3848 32.7341 26.4159 32.724C26.4469 32.7139 26.4797 32.71 26.5123 32.7125C26.5449 32.7151 26.5766 32.724 26.6057 32.7389C26.6349 32.7537 26.6608 32.7741 26.682 32.799C26.7032 32.8238 26.7193 32.8526 26.7295 32.8836C26.7396 32.9147 26.7434 32.9475 26.7409 32.9801C26.7383 33.0126 26.7294 33.0444 26.7146 33.0735C26.4993 33.5053 26.1829 33.8787 25.7923 34.1618C25.5494 34.9152 25.4246 35.7017 25.4222 36.4934C25.4209 36.5272 25.4127 36.5605 25.3981 36.5911C25.3836 36.6217 25.3629 36.649 25.3375 36.6714C25.3121 36.6938 25.2823 36.7107 25.2501 36.7213C25.2179 36.7319 25.1839 36.7358 25.1502 36.7328L25.1611 36.7165ZM34.9745 19.9327C35.1461 19.9323 35.3155 19.9718 35.4692 20.0481C35.6229 20.1244 35.7568 20.2354 35.8603 20.3723C35.9638 20.5092 36.0341 20.6683 36.0655 20.837C36.097 21.0057 36.0888 21.1794 36.0417 21.3444C35.9945 21.5094 35.9096 21.6612 35.7937 21.7878C35.6778 21.9144 35.5341 22.0123 35.3739 22.0738C35.2136 22.1353 35.0413 22.1587 34.8705 22.1422C34.6997 22.1257 34.535 22.0697 34.3895 21.9786L33.1353 23.2247C33.1118 23.2483 33.0838 23.2669 33.0529 23.2795C33.0221 23.2922 32.9891 23.2985 32.9558 23.2982H31.3941C31.3277 23.2982 31.264 23.2718 31.2171 23.2249C31.1702 23.1779 31.1438 23.1143 31.1438 23.0479C31.1438 22.9815 31.1702 22.9178 31.2171 22.8709C31.264 22.8239 31.3277 22.7976 31.3941 22.7976H32.8524L34.0359 21.6141C33.9335 21.4469 33.8775 21.2555 33.8735 21.0595C33.8696 20.8635 33.9179 20.67 34.0134 20.4989C34.109 20.3277 34.2483 20.1851 34.4172 20.0856C34.5861 19.9861 34.7785 19.9333 34.9745 19.9327ZM31.3941 33.4408C31.3277 33.4408 31.264 33.4144 31.2171 33.3675C31.1702 33.3205 31.1438 33.2569 31.1438 33.1905C31.1438 33.1241 31.1702 33.0604 31.2171 33.0135C31.264 32.9666 31.3277 32.9402 31.3941 32.9402H32.9666C33.0348 32.9419 33.0999 32.969 33.1489 33.0164L35.3826 35.0732H37.5591C37.6206 34.8084 37.7773 34.5754 37.9994 34.4187C38.2216 34.262 38.4936 34.1924 38.7637 34.2234C39.0338 34.2543 39.2831 34.3835 39.4641 34.5864C39.6451 34.7893 39.7451 35.0516 39.7451 35.3235C39.7451 35.5954 39.6451 35.8577 39.4641 36.0606C39.2831 36.2635 39.0338 36.3927 38.7637 36.4236C38.4936 36.4545 38.2216 36.385 37.9994 36.2283C37.7773 36.0716 37.6206 35.8386 37.5591 35.5738H35.2874C35.2245 35.5736 35.1641 35.5493 35.1187 35.5058L32.8714 33.4408H31.3941ZM31.3941 37.2008C31.3277 37.2008 31.264 37.1744 31.2171 37.1274C31.1702 37.0805 31.1438 37.0168 31.1438 36.9505C31.1438 36.8841 31.1702 36.8204 31.2171 36.7735C31.264 36.7265 31.3277 36.7001 31.3941 36.7001H32.9558C32.9891 36.6998 33.0221 36.7062 33.0529 36.7188C33.0838 36.7314 33.1118 36.75 33.1353 36.7736L34.3895 38.0306C34.6208 37.8862 34.8971 37.8319 35.1657 37.8782C35.4344 37.9244 35.6766 38.0679 35.8463 38.2813C36.0159 38.4946 36.1012 38.763 36.0857 39.0352C36.0702 39.3073 35.9551 39.5643 35.7623 39.757C35.5696 39.9498 35.3126 40.0649 35.0405 40.0804C34.7683 40.0958 34.5 40.0106 34.2866 39.841C34.0732 39.6713 33.9297 39.4291 33.8835 39.1604C33.8372 38.8918 33.8915 38.6155 34.0359 38.3842L32.8524 37.2008H31.3941ZM31.3941 27.0581C31.3277 27.0581 31.264 27.0318 31.2171 26.9848C31.1702 26.9379 31.1438 26.8742 31.1438 26.8078C31.1438 26.7414 31.1702 26.6778 31.2171 26.6308C31.264 26.5839 31.3277 26.5575 31.3941 26.5575H32.8714L35.1187 24.4925C35.1641 24.4491 35.2245 24.4247 35.2874 24.4245H37.5537C37.6151 24.1597 37.7719 23.9267 37.994 23.77C38.2162 23.6133 38.4882 23.5438 38.7583 23.5747C39.0284 23.6056 39.2777 23.7348 39.4586 23.9377C39.6396 24.1406 39.7396 24.403 39.7396 24.6748C39.7396 24.9467 39.6396 25.2091 39.4586 25.4119C39.2777 25.6148 39.0284 25.744 38.7583 25.7749C38.4882 25.8059 38.2162 25.7364 37.994 25.5796C37.7719 25.4229 37.6151 25.19 37.5537 24.9251H35.3771L33.1435 26.9819C33.0944 27.0293 33.0294 27.0565 32.9612 27.0581H31.3941ZM31.3941 30.2495C31.3277 30.2495 31.264 30.2231 31.2171 30.1761C31.1702 30.1292 31.1438 30.0655 31.1438 29.9992C31.1438 29.9328 31.1702 29.8691 31.2171 29.8222C31.264 29.7752 31.3277 29.7489 31.3941 29.7489H39.1453C39.2067 29.484 39.3634 29.2511 39.5856 29.0943C39.8077 28.9376 40.0798 28.8681 40.3499 28.899C40.62 28.93 40.8693 29.0592 41.0502 29.2621C41.2312 29.4649 41.3312 29.7273 41.3312 29.9992C41.3312 30.271 41.2312 30.5334 41.0502 30.7363C40.8693 30.9391 40.62 31.0684 40.3499 31.0993C40.0798 31.1302 39.8077 31.0607 39.5856 30.904C39.3634 30.7473 39.2067 30.5143 39.1453 30.2495H31.3941ZM24.9162 22.6779C24.8909 22.6172 24.8908 22.5491 24.9158 22.4884C24.9408 22.4277 24.9889 22.3794 25.0495 22.3541C25.1109 22.3289 25.1797 22.3291 25.2409 22.3546C25.3021 22.3801 25.3507 22.4288 25.376 22.4901C25.6008 23.0455 25.6142 23.664 25.4136 24.2285C25.2131 24.7931 24.8125 25.2645 24.2877 25.5536C24.2595 25.5716 24.228 25.5839 24.195 25.5898C24.162 25.5957 24.1282 25.595 24.0955 25.5878C24.0628 25.5806 24.0318 25.567 24.0043 25.5479C23.9769 25.5287 23.9534 25.5043 23.9354 25.4761C23.9174 25.4478 23.9051 25.4163 23.8992 25.3834C23.8933 25.3504 23.894 25.3166 23.9012 25.2838C23.9084 25.2511 23.922 25.2201 23.9412 25.1927C23.9603 25.1652 23.9847 25.1418 24.0129 25.1237C24.437 24.897 24.7627 24.522 24.9279 24.0703C25.093 23.6186 25.0859 23.1219 24.908 22.6751L24.9162 22.6779ZM28.317 36.5995C28.3029 36.5688 28.2952 36.5357 28.2942 36.502C28.2933 36.4682 28.2991 36.4347 28.3115 36.4033C28.3238 36.3719 28.3423 36.3433 28.366 36.3193C28.3897 36.2953 28.4179 36.2762 28.4491 36.2634C28.4803 36.2506 28.5138 36.2442 28.5475 36.2446C28.5812 36.245 28.6145 36.2522 28.6454 36.2658C28.6762 36.2794 28.704 36.2991 28.7271 36.3237C28.7501 36.3483 28.768 36.3774 28.7795 36.409C29.004 36.9663 29.0158 37.5866 28.8126 38.152C28.6094 38.7174 28.2055 39.1883 27.6777 39.4752C27.6495 39.4918 27.6183 39.5026 27.5859 39.5071C27.5535 39.5116 27.5205 39.5096 27.4889 39.5012C27.4573 39.4929 27.4276 39.4783 27.4017 39.4585C27.3757 39.4386 27.3539 39.4138 27.3376 39.3854C27.3205 39.3575 27.3092 39.3265 27.3044 39.2941C27.2995 39.2617 27.3012 39.2287 27.3093 39.197C27.3174 39.1653 27.3318 39.1356 27.3516 39.1095C27.3714 39.0835 27.3963 39.0616 27.4247 39.0454C27.8491 38.8191 28.175 38.4439 28.3397 37.9919C28.5044 37.54 28.4964 37.0431 28.317 36.5968V36.5995ZM25.6862 28.3804C25.7114 28.3194 25.7598 28.271 25.8208 28.2457C25.8818 28.2204 25.9503 28.2204 26.0113 28.2457C26.0722 28.2709 26.1207 28.3194 26.1459 28.3804C26.1712 28.4413 26.1712 28.5098 26.1459 28.5708C25.9108 29.1242 25.4803 29.5718 24.9364 29.8282C24.3925 30.0846 23.7733 30.1319 23.1967 29.9611C23.1651 29.9531 23.1353 29.939 23.1091 29.9195C23.0829 29.9 23.0608 29.8755 23.0441 29.8474C23.0274 29.8194 23.0164 29.7883 23.0118 29.756C23.0072 29.7236 23.009 29.6907 23.0172 29.6591C23.0333 29.595 23.074 29.5398 23.1306 29.5057C23.1872 29.4715 23.255 29.4612 23.3192 29.4768C23.7778 29.6168 24.2718 29.5833 24.7073 29.3827C25.1428 29.182 25.4893 28.8281 25.6807 28.3885L25.6862 28.3804ZM27.8627 42C28.1609 42.0004 28.4562 41.9419 28.7318 41.8281C29.0074 41.7142 29.2579 41.5471 29.4689 41.3364C29.6799 41.1256 29.8473 40.8754 29.9615 40.5999C30.0757 40.3244 30.1344 40.0292 30.1344 39.731V32.5783C30.0946 32.102 29.8811 31.657 29.5344 31.3279C29.1878 30.9988 28.7322 30.8086 28.2545 30.7936C28.22 30.7938 28.1858 30.7869 28.1541 30.7732C28.1225 30.7596 28.0939 30.7396 28.0704 30.7144C28.0468 30.6892 28.0287 30.6595 28.0172 30.627C28.0056 30.5945 28.0009 30.56 28.0034 30.5256C28.0058 30.4912 28.0153 30.4576 28.0313 30.4271C28.0474 30.3966 28.0695 30.3697 28.0964 30.3481C28.1233 30.3265 28.1544 30.3107 28.1876 30.3017C28.2209 30.2927 28.2557 30.2906 28.2898 30.2957C28.6482 30.3058 28.9998 30.3958 29.3189 30.5592C29.638 30.7225 29.9166 30.955 30.1344 31.2398V24.3402C29.7155 25.0948 29.0397 25.674 28.23 25.9726C28.1683 25.9953 28.1001 25.9926 28.0404 25.965C27.9807 25.9375 27.9344 25.8874 27.9117 25.8257C27.8889 25.764 27.8916 25.6958 27.9192 25.6361C27.9467 25.5764 27.9969 25.5301 28.0586 25.5073C29.7807 24.8598 30.0963 23.0914 30.129 22.8819V20.2674C30.1283 19.9275 30.0514 19.5921 29.904 19.286C29.7565 18.9798 29.5422 18.7106 29.2769 18.4982C29.0116 18.2858 28.702 18.1357 28.371 18.0589C28.0399 17.982 27.6959 17.9804 27.3641 18.0542C27.0324 18.1279 26.7214 18.2752 26.4542 18.4851C26.1869 18.695 25.9701 18.9622 25.8198 19.267C25.6695 19.5717 25.5895 19.9064 25.5856 20.2462C25.5818 20.586 25.6543 20.9224 25.7977 21.2305C25.8129 21.2592 25.8223 21.2907 25.8253 21.3231C25.8283 21.3555 25.8249 21.3881 25.8153 21.4192C25.8057 21.4503 25.7901 21.4792 25.7693 21.5042C25.7486 21.5292 25.7231 21.5499 25.6943 21.5651C25.6353 21.5895 25.5692 21.5904 25.5095 21.5677C25.4498 21.5449 25.4011 21.5002 25.3733 21.4427C25.1898 21.0618 25.0967 20.6438 25.1012 20.2211C24.7322 20.3511 24.407 20.5821 24.1626 20.8877C23.9799 21.1145 23.8457 21.3764 23.7685 21.6572C23.6913 21.938 23.6726 22.2317 23.7137 22.5201C23.7169 22.558 23.7116 22.5963 23.698 22.6319C23.6844 22.6675 23.6629 22.6996 23.6352 22.7258C23.6075 22.7519 23.5742 22.7715 23.5378 22.783C23.5015 22.7945 23.463 22.7976 23.4253 22.7921C23.1391 22.7489 22.847 22.7647 22.5671 22.8386C22.2873 22.9125 22.0255 23.043 21.798 23.222C21.5705 23.401 21.3821 23.6247 21.2443 23.8793C21.1066 24.1339 21.0225 24.414 20.9972 24.7023C20.9718 24.9907 21.0059 25.2812 21.0971 25.5559C21.1884 25.8306 21.335 26.0837 21.5278 26.2996C21.7206 26.5155 21.9556 26.6896 22.2184 26.8111C22.4811 26.9327 22.7659 26.9992 23.0553 27.0064C23.1217 27.0064 23.1853 27.0328 23.2323 27.0797C23.2792 27.1267 23.3056 27.1903 23.3056 27.2567C23.3056 27.3231 23.2792 27.3868 23.2323 27.4337C23.1853 27.4807 23.1217 27.507 23.0553 27.507C22.649 27.5075 22.2481 27.4133 21.8845 27.2319C21.5209 27.0506 21.2045 26.7871 20.9604 26.4623C20.2848 26.7278 19.7048 27.1905 19.2961 27.7904C18.8873 28.3902 18.6687 29.0992 18.6687 29.825C18.6687 30.5509 18.8873 31.2599 19.2961 31.8597C19.7048 32.4595 20.2848 32.9223 20.9604 33.1878C21.2042 32.8625 21.5205 32.5984 21.8841 32.4166C22.2477 32.2348 22.6487 32.1402 23.0553 32.1403C23.1217 32.1403 23.1853 32.1667 23.2323 32.2136C23.2792 32.2606 23.3056 32.3242 23.3056 32.3906C23.3056 32.457 23.2792 32.5207 23.2323 32.5676C23.1853 32.6146 23.1217 32.6409 23.0553 32.6409C22.7614 32.6412 22.4707 32.7027 22.2018 32.8213C21.9329 32.94 21.6917 33.1132 21.4933 33.3301C21.295 33.5471 21.1439 33.8028 21.0498 34.0813C20.9556 34.3597 20.9204 34.6546 20.9463 34.9474C20.9723 35.2402 21.0588 35.5243 21.2005 35.7818C21.3421 36.0394 21.5358 36.2646 21.7692 36.4433C22.0026 36.6219 22.2706 36.7501 22.5561 36.8196C22.8417 36.8891 23.1386 36.8985 23.428 36.8471C23.468 36.8395 23.5093 36.8419 23.5481 36.8541C23.587 36.8663 23.6222 36.8878 23.6507 36.9169C23.6792 36.946 23.7002 36.9816 23.7116 37.0207C23.7231 37.0597 23.7247 37.101 23.7164 37.1409C23.6645 37.5406 23.7258 37.9469 23.8932 38.3135C24.0133 38.5711 24.1837 38.802 24.3944 38.9927C24.6052 39.1833 24.852 39.3298 25.1203 39.4235C25.1689 38.9972 25.3152 38.5879 25.5478 38.2274C25.7804 37.8669 26.0931 37.5649 26.4615 37.3449C26.5184 37.3142 26.5849 37.3066 26.6472 37.3238C26.7095 37.341 26.7627 37.3816 26.7958 37.4371C26.8288 37.4926 26.8391 37.5588 26.8245 37.6217C26.8098 37.6847 26.7714 37.7395 26.7173 37.7748C26.2905 38.0296 25.959 38.4172 25.7737 38.8784C25.5883 39.3397 25.5594 39.8489 25.6912 40.3282C25.8231 40.8074 26.1085 41.2302 26.5036 41.5317C26.8988 41.8332 27.382 41.9967 27.879 41.9973L27.8627 42Z" fill="white"/>
</svg>
