<svg width="50" height="50" viewBox="0 0 50 50" fill="none" xmlns="http://www.w3.org/2000/svg">
<circle cx="25" cy="25" r="25" fill="#85C0EA"/>
<path fill-rule="evenodd" clip-rule="evenodd" d="M27.5832 30.33C27.5595 30.1412 27.1102 29.301 27.0156 29.0818C25.9986 27.0177 25.0289 24.911 24.0119 22.8469C23.5862 21.9945 23.2787 20.9168 22.1198 20.9168C20.9846 20.9168 20.7244 21.9214 20.3224 22.7191L18.0046 27.5596C17.8627 27.8336 16.9166 29.8916 16.7984 29.9829C16.7747 29.8307 16.5855 29.5323 16.5145 29.374C16.4199 29.167 16.3017 28.9722 16.2307 28.7712C15.8759 27.9919 15.4266 27.1151 15.0482 26.3479C15.0009 26.2505 14.9772 26.1409 14.9299 26.0374C14.859 25.9339 14.8353 25.8487 14.7643 25.7391C14.6697 25.526 14.5751 25.3433 14.4805 25.1424C14.3623 24.9414 14.2914 24.7405 14.1968 24.5274L13.298 22.7191C12.8723 21.8301 12.6594 20.9168 11.4296 20.9168C10.6491 20.9168 10.1051 21.5744 10.0105 22.2928C9.91592 22.8895 10.4835 23.7907 10.7437 24.3082L14.8117 32.7837C15.2847 33.7336 15.6158 35 16.7984 35C17.91 35 18.2411 34.0806 18.6195 33.2221C18.8796 32.5645 19.5182 31.4442 19.7784 30.8049C19.9439 30.3909 20.1804 30.0072 20.3697 29.5993L21.2447 27.7788C21.3393 27.5657 21.4339 27.383 21.5286 27.1821C21.6232 26.9812 21.7178 26.7802 21.8124 26.5671C21.907 26.4088 22.0725 26.0922 22.1198 25.9339C22.2381 26.0191 22.3563 26.354 22.4273 26.5123L25.36 32.5889C25.5965 33.0516 25.9749 34.0319 26.2587 34.4033C26.8737 35.2436 28.1745 35.1644 28.7421 34.2816L29.499 33.0395C29.6172 32.8263 29.7355 32.6376 29.8773 32.4245C29.9956 32.2053 30.1139 32.0105 30.2558 31.8034C30.5159 31.3833 30.7525 30.9815 31.0126 30.5613L34.0399 25.6356C34.3238 25.2276 34.5366 24.8258 34.7968 24.4178L36.6888 21.3308C36.8308 21.1116 36.949 20.9168 37.0909 20.7098L39.7398 16.399C39.9527 16.0336 40 15.8327 40 15.3821C40 14.6941 39.2668 14 38.5809 14C38.037 14 37.6112 14.207 37.3038 14.5845C36.9963 14.9925 34.6549 18.9441 34.0872 19.8269L33.1176 21.4039C32.9993 21.5744 32.881 21.751 32.7864 21.9397L31.3437 24.2838C30.6105 25.526 29.8064 26.7132 29.0732 27.9493C29.0259 28.0589 28.9786 28.1319 28.9077 28.2294L27.938 29.8063C27.867 29.922 27.6778 30.2691 27.5832 30.33Z" fill="white"/>
<path fill-rule="evenodd" clip-rule="evenodd" d="M14 21.4194C14 21.9064 14.026 22.163 14.234 22.5908C15.0142 24.1372 17.0685 24.4663 18.2127 23.3015C19.7209 21.7814 18.9148 19.5175 17.0425 19.0635C16.2103 18.8661 15.3262 19.1424 14.7541 19.7084C14.5461 19.9256 14.3641 20.1296 14.234 20.4257C14.104 20.7021 14 21.0311 14 21.4194Z" fill="white"/>
<path fill-rule="evenodd" clip-rule="evenodd" d="M26 21.3541C26 22.1962 26.1558 22.6962 26.7527 23.2884C27.9725 24.499 29.997 24.0911 30.7238 22.6239C31.4764 21.1501 30.6718 19.2093 28.5436 19.0053C27.9985 18.9527 27.168 19.3014 26.8046 19.683C26.3634 20.104 26 20.683 26 21.3541Z" fill="white"/>
</svg>
