<svg width="60" height="60" viewBox="0 0 60 60" fill="none" xmlns="http://www.w3.org/2000/svg">
<rect opacity="0.3" width="60" height="60" rx="30" fill="#85C0EA"/>
<rect x="9" y="9.00024" width="42" height="42" rx="21" fill="#85C0EA"/>
<path fill-rule="evenodd" clip-rule="evenodd" d="M32.77 38.8498C33.0146 38.5905 33.2157 38.2934 33.3652 37.9698C32.8826 37.3582 32.6202 36.6019 32.6204 35.8228V32.8124C32.6204 31.8873 32.9879 31.0001 33.6421 30.346C34.2962 29.6918 35.1834 29.3243 36.1085 29.3243C37.0336 29.3243 37.9208 29.6918 38.5749 30.346C39.229 31.0001 39.5965 31.8873 39.5965 32.8124V35.8228C39.5953 36.3001 39.4964 36.7721 39.3059 37.2097C39.1154 37.6473 38.8372 38.0412 38.4887 38.3672C38.1401 38.6932 37.7284 38.9444 37.2791 39.1053C36.8298 39.2662 36.3522 39.3333 35.8759 39.3026C35.716 39.6402 35.524 39.9617 35.3026 40.2626C35.9525 40.3785 36.6198 40.3508 37.2578 40.1813C37.8958 40.0119 38.489 39.7048 38.9956 39.2817C39.5023 38.8586 39.9103 38.3297 40.1908 37.7322C40.4713 37.1346 40.6176 36.4829 40.6195 35.8228V32.8124C40.6241 32.2171 40.5108 31.6267 40.2861 31.0754C40.0615 30.524 39.7299 30.0226 39.3105 29.6C38.8912 29.1774 38.3923 28.842 37.8427 28.6132C37.2932 28.3843 36.7037 28.2664 36.1083 28.2664C35.513 28.2664 34.9235 28.3843 34.374 28.6132C33.8244 28.842 33.3255 29.1774 32.9062 29.6C32.4868 30.0226 32.1552 30.524 31.9306 31.0754C31.7059 31.6267 31.5926 32.2171 31.5972 32.8124V35.8228C31.5968 36.9429 32.0154 38.0226 32.7706 38.8498H32.77ZM26.6345 37.9698C26.784 38.2934 26.9851 38.5905 27.2297 38.8498C27.9849 38.0226 28.4034 36.9429 28.403 35.8228V32.8124C28.4076 32.2171 28.2943 31.6267 28.0696 31.0754C27.845 30.524 27.5134 30.0226 27.0941 29.6C26.6747 29.1774 26.1759 28.842 25.6263 28.6132C25.0767 28.3843 24.4872 28.2664 23.8919 28.2664C23.2965 28.2664 22.7071 28.3843 22.1575 28.6132C21.6079 28.842 21.109 29.1774 20.6897 29.6C20.2703 30.0226 19.9388 30.524 19.7141 31.0754C19.4895 31.6267 19.3762 32.2171 19.3807 32.8124V35.8228C19.3827 36.4828 19.5291 37.1344 19.8097 37.7318C20.0902 38.3292 20.4981 38.8579 21.0047 39.2809C21.5113 39.7039 22.1044 40.011 22.7423 40.1804C23.3801 40.3499 24.0473 40.3777 24.6971 40.2618C24.4758 39.9608 24.2839 39.6394 24.1238 39.3018C23.6475 39.3325 23.1701 39.2654 22.7208 39.1045C22.2715 38.9437 21.8599 38.6926 21.5113 38.3667C21.1628 38.0408 20.8846 37.6469 20.6941 37.2094C20.5035 36.7719 20.4045 36.3 20.4032 35.8228V32.8124C20.4032 31.8873 20.7707 31.0001 21.4248 30.346C22.0789 29.6918 22.9661 29.3243 23.8912 29.3243C24.8163 29.3243 25.7035 29.6918 26.3576 30.346C27.0118 31.0001 27.3793 31.8873 27.3793 32.8124V35.8228C27.3795 36.6019 27.1171 37.3583 26.6345 37.9698ZM34.1196 30.7998C34.4921 30.4311 34.9595 30.1726 35.4698 30.0531C35.6777 30.6193 35.7831 31.2178 35.7813 31.8209V36.8159C35.7771 38.1894 35.2296 39.5055 34.2584 40.4768C33.2872 41.448 31.9712 41.9956 30.5977 42H29.402C28.0285 41.9956 26.7125 41.448 25.7413 40.4768C24.7701 39.5055 24.2226 38.1894 24.2184 36.8159V31.8193C24.2166 31.2162 24.3221 30.6177 24.5299 30.0515C25.0404 30.1715 25.5078 30.4305 25.8801 30.7998C25.7494 31.1956 25.6825 31.6097 25.6819 32.0265V36.6084C25.6847 37.6492 26.0994 38.6465 26.8353 39.3824C27.5712 40.1184 28.5684 40.5331 29.6092 40.536H30.3903C31.431 40.5332 32.4284 40.1185 33.1643 39.3825C33.9003 38.6466 34.315 37.6492 34.3178 36.6084V32.0265C34.3172 31.6097 34.2503 31.1956 34.1196 30.7998ZM27.2478 28.8937C26.8338 28.538 26.3663 28.25 25.8625 28.0403C26.8203 27.1384 28.0863 26.6361 29.402 26.636H30.5977C31.9134 26.6361 33.1794 27.1384 34.1372 28.0403C33.6334 28.25 33.1659 28.538 32.7519 28.8937C32.4525 28.6672 32.1222 28.4847 31.7711 28.3518C30.9833 28.0536 30.4191 28.099 29.6092 28.099C28.7565 28.0996 27.9274 28.3787 27.2478 28.8937ZM37.9296 23.0469C37.5694 22.6867 37.1105 22.4414 36.6109 22.342C36.1113 22.2426 35.5934 22.2936 35.1228 22.4885C34.6522 22.6834 34.2499 23.0136 33.9669 23.4371C33.6839 23.8606 33.5328 24.3586 33.5328 24.868C33.5328 25.3774 33.6839 25.8753 33.9669 26.2989C34.2499 26.7224 34.6522 27.0525 35.1228 27.2475C35.5934 27.4424 36.1113 27.4934 36.6109 27.394C37.1105 27.2946 37.5694 27.0493 37.9296 26.6891C38.1687 26.45 38.3585 26.166 38.4879 25.8536C38.6174 25.5411 38.684 25.2062 38.684 24.868C38.684 24.5298 38.6174 24.1949 38.4879 23.8824C38.3585 23.5699 38.1687 23.286 37.9296 23.0469ZM25.7123 23.0469C25.3521 22.6867 24.8932 22.4414 24.3936 22.342C23.894 22.2426 23.3762 22.2936 22.9055 22.4885C22.4349 22.6834 22.0327 23.0136 21.7497 23.4371C21.4666 23.8606 21.3156 24.3586 21.3156 24.868C21.3156 25.3774 21.4666 25.8753 21.7497 26.2989C22.0327 26.7224 22.4349 27.0525 22.9055 27.2475C23.3762 27.4424 23.894 27.4934 24.3936 27.394C24.8932 27.2946 25.3521 27.0493 25.7123 26.6891C26.1952 26.2061 26.4665 25.551 26.4665 24.868C26.4665 24.185 26.1952 23.5299 25.7123 23.0469ZM32.5156 19.042C33.0132 19.5396 33.3521 20.1736 33.4894 20.8637C33.6267 21.5539 33.5562 22.2693 33.287 22.9194C33.0177 23.5696 32.5616 24.1253 31.9765 24.5162C31.3914 24.9072 30.7035 25.1158 29.9999 25.1158C29.2962 25.1158 28.6083 24.9072 28.0232 24.5162C27.4381 24.1253 26.982 23.5696 26.7127 22.9194C26.4435 22.2693 26.373 21.5539 26.5103 20.8637C26.6476 20.1736 26.9865 19.5396 27.4841 19.042C28.1513 18.3748 29.0563 18 29.9999 18C30.9434 18 31.8484 18.3748 32.5156 19.042Z" fill="white"/>
</svg>
