<svg width="60" height="60" viewBox="0 0 60 60" fill="none" xmlns="http://www.w3.org/2000/svg">
<rect opacity="0.3" width="60" height="60" rx="30" fill="#85C0EA"/>
<rect x="9" y="9.00024" width="42" height="42" rx="21" fill="#85C0EA"/>
<path fill-rule="evenodd" clip-rule="evenodd" d="M26.8538 41.8838C29.3362 41.2244 28.5577 38.2489 27.6956 36.0018C27.6768 35.9364 27.6555 35.8759 27.5613 35.9129C26.5251 36.6182 24.4366 37.2784 22.9255 37.077C23.2253 40.0517 24.2369 42.5797 26.8538 41.8838Z" fill="white"/>
<path fill-rule="evenodd" clip-rule="evenodd" d="M27.4197 35.5433C26.2224 36.2356 24.5776 36.7071 23.0132 36.6665C22.3607 34.2444 21.0665 32.2498 21.0275 30.1647C21.0104 29.2345 21.0135 28.3221 21.2088 27.2102C21.4546 25.8121 21.9173 23.6692 23.4494 23.2134C25.5663 22.5846 26.6327 24.9399 27.2009 26.3665C27.4979 27.1096 27.7706 27.9171 27.8184 28.5039C28.0452 31.2567 26.2376 32.6987 27.4197 35.5433Z" fill="white"/>
<path fill-rule="evenodd" clip-rule="evenodd" d="M33.521 36.8526C31.019 36.2728 31.7021 33.2738 32.4919 31.0002C32.5088 30.9345 32.5281 30.8732 32.6234 30.9071C33.682 31.5787 35.7901 32.1721 37.294 31.9226C37.0896 34.9051 36.1589 37.4645 33.521 36.8526Z" fill="white"/>
<path fill-rule="evenodd" clip-rule="evenodd" d="M32.7613 30.5336C33.9801 31.1869 35.6393 31.6062 37.2012 31.5156C37.7764 29.0741 39.0063 27.0393 38.9786 24.9538C38.9659 24.0234 38.9342 23.1118 38.7032 22.0065C38.4129 20.617 37.8816 18.4898 36.3366 18.0835C34.2003 17.5227 33.21 19.9103 32.6873 21.3546C32.4144 22.1068 32.1679 22.9228 32.1387 23.511C31.9991 26.2691 33.852 27.6523 32.7613 30.5336Z" fill="white"/>
</svg>
