<svg width="60" height="60" viewBox="0 0 60 60" fill="none" xmlns="http://www.w3.org/2000/svg">
<rect opacity="0.3" width="60" height="60" rx="30" fill="#85C0EA"/>
<rect x="9" y="9.00024" width="42" height="42" rx="21" fill="#85C0EA"/>
<path d="M39.2035 21.7775C36.8661 19.4401 33.0678 19.4401 30.7304 21.7775L29.4783 23.0296L28.2261 21.7775C25.8887 19.4401 22.0904 19.4401 19.753 21.7775C17.4157 24.1148 17.4157 27.9131 19.753 30.2505L29.4783 39.9757L38.6817 30.7722H35.3009L32.6087 28.0801L29.9165 30.7722H27.2035V28.6853H29.04L32.6087 25.1166L36.1774 28.6853H40.3304C41.4365 26.4314 41.0817 23.6348 39.2035 21.7775Z" fill="white"/>
<path d="M38.6821 30.7723H42.0004V28.6853H40.3308C40.0595 29.2488 39.6839 29.7705 39.2039 30.2505L38.6821 30.7723Z" fill="white"/>
</svg>
