<svg width="208" height="218" viewBox="0 0 208 218" fill="none" xmlns="http://www.w3.org/2000/svg">
<g clip-path="url(#clip0_2_10680)">
<path opacity="0.5" d="M47.9628 155.077C51.4188 160.433 57.01 164.644 63.4021 165.607C68.4714 166.413 73.617 165.554 78.5565 164.37C85.1972 162.786 91.6759 160.584 98.3131 158.972C104.863 157.312 111.651 156.294 118.412 156.937C124.636 157.442 130.769 159.403 135.972 162.874C138.887 164.974 141.781 167.141 144.152 169.864C149.339 175.43 152.778 182.31 155.736 189.247C158.248 195.174 160.782 201.121 164.032 206.694C167.638 212.872 171.854 218.743 176.988 223.752C181.825 228.399 187.672 232.298 194.336 233.654C199.914 234.871 205.913 234.089 210.941 231.366C216.886 228.229 221.345 223.041 225.838 218.183C230.315 213.066 234.873 208.01 239.661 203.173C244.471 198.349 249.473 193.624 255.248 189.967C259.635 187.205 264.459 185.03 269.571 184.073C275.172 182.903 281.024 183.555 286.447 185.262C293.36 187.497 299.865 190.786 306.643 193.373C313.836 196.171 321.293 198.438 328.979 199.355C333.887 199.969 338.946 199.835 343.711 198.398C350.047 196.548 355.612 192.894 361.361 189.763C366.519 186.889 371.845 184.163 377.608 182.744C383.13 181.363 388.878 180.71 394.568 181.158C398.292 181.523 402.161 182.467 405.069 184.955C406.632 185.97 407.601 187.589 408.773 188.987C408.894 188.931 409.138 188.814 409.259 188.758C407.848 186.65 406.359 184.418 404.094 183.166C398.91 180.077 392.629 179.807 386.77 180.318C380.746 180.779 374.765 182.192 369.252 184.696C362.66 187.618 356.627 191.609 350.198 194.846C345.535 197.155 340.423 198.721 335.195 198.749C328.649 198.846 322.187 197.432 315.937 195.613C309.327 193.621 302.947 190.949 296.631 188.185C290.715 185.687 284.657 183.13 278.179 182.651C272.285 182.104 266.343 183.405 260.962 185.79C255.392 188.248 250.392 191.837 245.858 195.868C240.352 200.768 235.295 206.146 230.356 211.607C225.658 216.798 221.247 222.301 215.897 226.872C211.382 230.742 205.6 233.428 199.567 233.321C192.305 233.382 185.448 229.984 179.972 225.424C170.164 216.776 163.388 205.251 158.369 193.304C155.743 187.189 153.229 180.968 149.524 175.408C145.34 169.167 139.853 163.664 133.117 160.222C127.177 157.059 120.378 155.795 113.693 155.828C101.788 155.902 90.5801 160.425 79.1684 163.229C73.6998 164.57 67.9555 165.637 62.36 164.435C56.4885 163.169 51.5099 159.101 48.4315 154.026C44.7337 148.194 43.0276 141.249 43.0292 134.383C43.0863 123.508 46.2082 112.601 52.1196 103.462C52.923 102.169 53.7748 100.833 55.0604 99.9581C54.7108 99.7809 54.1327 99.4574 53.8596 99.931C49.9009 104.49 47.186 109.977 45.2476 115.661C43.0678 122.153 41.8846 129.016 42.119 135.872C42.3023 142.638 44.2357 149.398 47.9718 155.069L47.9628 155.077Z" fill="#F1C977"/>
</g>
<defs>
<clipPath id="clip0_2_10680">
<rect width="177.569" height="126.038" fill="white" transform="translate(0 141.283) scale(1.00053) rotate(-52.677)"/>
</clipPath>
</defs>
</svg>
