<svg width="452" height="384" viewBox="0 0 452 384" fill="none" xmlns="http://www.w3.org/2000/svg">
<g clip-path="url(#clip0_2_10651)">
<path opacity="0.5" d="M255.858 294.691C260.068 289.902 262.593 283.37 261.774 276.956C261.165 271.857 258.933 267.14 256.443 262.71C253.105 256.753 249.215 251.119 245.852 245.172C242.464 239.323 239.63 233.068 238.402 226.387C237.188 220.259 237.4 213.821 239.319 207.866C240.543 204.487 241.837 201.11 243.81 198.084C247.75 191.572 253.431 186.383 259.299 181.641C264.316 177.604 269.347 173.542 273.822 168.891C278.783 163.733 283.281 158.072 286.698 151.763C289.849 145.839 292.003 139.147 291.488 132.363C291.136 126.663 288.744 121.104 284.75 117.008C280.107 112.145 273.896 109.271 267.993 106.274C261.846 103.364 255.735 100.359 249.773 97.0725C243.816 93.7619 237.903 90.2392 232.806 85.6803C228.949 82.2136 225.538 78.1649 223.221 73.5067C220.565 68.437 219.594 62.6268 219.754 56.9419C220.017 49.6783 221.405 42.5205 222.043 35.2904C222.771 27.604 222.915 19.8083 221.698 12.1614C220.948 7.27019 219.437 2.43826 216.752 -1.75448C213.24 -7.34589 208.204 -11.7036 203.62 -16.38C199.445 -20.5593 195.367 -24.9396 192.427 -30.0982C189.59 -35.035 187.391 -40.3877 186.267 -45.9862C185.601 -49.6695 185.453 -53.6509 187.053 -57.1293C187.603 -58.9106 188.896 -60.2847 189.921 -61.7948C189.834 -61.8958 189.655 -62.0985 189.568 -62.1996C187.925 -60.2662 186.184 -58.2237 185.598 -55.7016C184.041 -49.8689 185.497 -43.7513 187.589 -38.2527C189.679 -32.5811 192.673 -27.2112 196.588 -22.5905C201.201 -17.0447 206.69 -12.3288 211.561 -7.02703C215.058 -3.16988 217.961 1.3216 219.417 6.34551C221.298 12.6182 221.703 19.2226 221.659 25.7345C221.548 32.6401 220.72 39.5094 219.785 46.3433C218.998 52.7186 218.192 59.2464 219.501 65.6115C220.585 71.4334 223.46 76.7964 227.225 81.3231C231.112 86.0112 235.932 89.843 241.05 93.1045C247.27 97.065 253.827 100.462 260.431 103.723C266.71 106.826 273.21 109.568 279.071 113.467C284.029 116.755 288.193 121.586 289.739 127.42C291.781 134.392 290.384 141.92 287.493 148.435C281.849 160.236 272.61 169.905 262.483 177.999C257.316 182.197 252.017 186.315 247.678 191.4C242.815 197.131 239.018 203.915 237.546 211.337C236.125 217.918 236.766 224.807 238.624 231.231C241.947 242.667 249.362 252.217 255.178 262.433C257.963 267.329 260.558 272.566 260.93 278.279C261.317 284.275 258.762 290.178 254.719 294.527C250.116 299.679 243.899 303.218 237.292 305.092C226.81 308.008 215.461 307.983 205.052 304.791C203.587 304.371 202.07 303.916 200.876 302.918C200.801 303.303 200.648 303.948 201.178 304.081C206.647 306.645 212.669 307.759 218.668 308.072C225.511 308.396 232.44 307.659 238.973 305.561C245.434 303.536 251.411 299.829 255.848 294.684L255.858 294.691Z" fill="#F1C977"/>
</g>
<defs>
<clipPath id="clip0_2_10651">
<rect width="382" height="262" fill="white" transform="translate(355.798 384) scale(1.00089) rotate(-158.525)"/>
</clipPath>
</defs>
</svg>
