<svg width="40" height="21" viewBox="0 0 40 21" fill="none" xmlns="http://www.w3.org/2000/svg">
<path d="M11.0427 15.6367C16.4697 18.088 22.2885 19.681 28.2096 20.3123C31.8966 20.7093 35.6241 20.7479 39.3174 20.3925C39.4128 20.3543 39.4926 20.3137 39.5601 20.2696C40.2724 19.8058 40.0435 19.1998 39.416 18.7632C37.1714 17.2062 34.8985 15.688 32.7333 14.0199C31.6069 13.1536 30.4951 12.2751 29.3957 11.3777C29.003 11.0585 26.4917 8.53618 26.1384 8.65014C24.6569 7.38564 23.1663 6.12779 21.592 4.97868C20.8682 4.45058 17.6909 1.76406 16.816 2.04625C11.2462 -1.35455 -1.52734 -1.23185 0.150709 7.97884C1.85899 11.6741 7.57133 13.7547 11.046 15.6357L11.0427 15.6367Z" fill="#F4AAA9"/>
</svg>
