<svg width="147" height="40" viewBox="0 0 147 40" fill="none" xmlns="http://www.w3.org/2000/svg">
<path fill-rule="evenodd" clip-rule="evenodd" d="M30.9814 31.2826C30.9397 30.9303 30.1479 29.3619 29.9813 28.9528C28.1893 25.1001 26.4807 21.1678 24.6888 17.3151C23.9387 15.724 23.3969 13.7123 21.355 13.7123C19.3547 13.7123 18.8963 15.5876 18.1879 17.0764L14.1039 26.1115C13.8539 26.623 12.187 30.4643 11.9786 30.6348C11.9369 30.3507 11.6035 29.7938 11.4785 29.4983C11.3118 29.1119 11.1035 28.7482 10.9785 28.3731C10.3533 26.9185 9.56161 25.2819 8.89482 23.8499C8.81148 23.6681 8.76981 23.4635 8.68647 23.2703C8.56146 23.0771 8.51979 22.918 8.39471 22.7134C8.22803 22.3156 8.06135 21.9747 7.89467 21.5996C7.68632 21.2246 7.56131 20.8496 7.39463 20.4518L5.81103 17.0764C5.0609 15.4171 4.68586 13.7123 2.51888 13.7123C1.1437 13.7123 0.185217 14.9397 0.0185359 16.2808C-0.148145 17.3946 0.851941 19.0767 1.31038 20.0427L8.47812 35.8627C9.31152 37.6356 9.89497 39.9995 11.9786 39.9995C13.9372 39.9995 14.5206 38.2834 15.1874 36.6809C15.6458 35.4535 16.771 33.3624 17.2294 32.1691C17.5211 31.3963 17.9378 30.6802 18.2712 29.9188L19.8131 26.5207C19.9798 26.1229 20.1464 25.782 20.3132 25.4069C20.4799 25.0319 20.6465 24.6568 20.8132 24.259C20.9799 23.9635 21.2716 23.3726 21.355 23.0771C21.5634 23.2362 21.7717 23.8613 21.8967 24.1568L27.0642 35.499C27.4809 36.3628 28.1476 38.1925 28.6477 38.8857C29.7312 40.4541 32.0232 40.3064 33.0233 38.6585L34.3569 36.34C34.5653 35.9423 34.7736 35.5899 35.0236 35.1921C35.232 34.783 35.4404 34.4194 35.6904 34.0329C36.1488 33.2487 36.5656 32.4987 37.0239 31.7145L42.358 22.5202C42.8582 21.7587 43.2332 21.0087 43.6916 20.2472L47.0254 14.4852C47.2755 14.076 47.4838 13.7123 47.7338 13.326L52.4012 5.27957C52.7763 4.59767 52.8596 4.22261 52.8596 3.38161C52.8596 2.09739 51.5678 0.801749 50.3593 0.801749C49.4008 0.801749 48.6506 1.18817 48.1089 1.89279C47.5672 2.65427 43.4415 10.0301 42.4414 11.6781L40.7328 14.6216C40.5244 14.9398 40.3161 15.2694 40.1494 15.6217L37.6074 19.9972C36.3155 22.3156 34.8986 24.5318 33.6068 26.8389C33.5234 27.0435 33.4401 27.1799 33.3151 27.3617L31.6065 30.3052C31.4815 30.5211 31.1481 31.169 30.9814 31.2826Z" fill="#005C87"/>
<path fill-rule="evenodd" clip-rule="evenodd" d="M99.3214 27.1114C99.3214 25.668 99.4047 24.7134 100.03 23.4064C100.447 22.5086 100.863 21.9517 101.488 21.2811C103.78 18.7809 107.614 18.5308 110.365 20.5084C113.198 22.5427 114.24 26.8159 112.782 29.9071C112.573 30.3845 112.448 30.6686 112.157 31.1005C112.032 31.2709 111.907 31.4642 111.782 31.6119C111.156 32.3506 111.281 32.2597 110.448 32.9416C109.323 33.8281 107.989 34.2145 106.489 34.3395C105.781 34.3963 104.28 34.0327 103.614 33.7371C102.864 33.3962 102.364 33.0212 101.78 32.487C101.488 32.2484 101.363 32.1574 101.072 31.7937C100.947 31.5778 100.822 31.4755 100.697 31.2596C100.447 30.8959 100.238 30.5322 100.03 30.1004C99.6965 29.3731 99.3214 28.1684 99.3214 27.1114ZM93.9873 3.34722V37.374C93.9873 39.056 96.1543 41.0449 98.3212 39.3401C98.863 38.9196 99.113 38.3173 99.2381 37.6354C99.7382 37.7717 103.155 40.988 109.031 39.6924C109.865 39.5106 110.615 39.2264 111.365 38.8855C112.115 38.5104 112.657 38.1922 113.323 37.7149C115.282 36.3284 116.532 34.6009 117.574 32.4302C119.116 29.0889 119.158 24.4634 117.574 21.122C116.866 19.5878 116.657 19.315 115.782 18.1445C113.865 15.5987 110.323 13.4848 106.322 13.4848C104.531 13.4848 102.947 13.9053 101.53 14.5417C100.488 15.0077 99.9465 15.4737 99.2381 15.8714C99.2381 12.8824 99.2381 9.89345 99.2381 6.90445C99.2381 5.80205 99.4047 3.35865 99.113 2.5858C98.4463 0.551464 96.1126 0.119608 94.8208 1.49477C94.4457 1.88119 93.9873 2.59716 93.9873 3.34722Z" fill="#005C87"/>
<path fill-rule="evenodd" clip-rule="evenodd" d="M127.494 26.7166C127.494 21.0228 133.495 16.9087 138.621 20.5114C143.33 23.8413 142.622 32.365 136.162 34.1152C134.62 34.5357 132.912 34.2402 131.703 33.6379C129.12 32.365 127.494 29.7738 127.494 26.7166ZM122.202 26.7166C122.202 30.2171 123.244 32.6833 125.077 35.1949C125.202 35.4109 125.286 35.4563 125.452 35.6381C125.994 36.3655 126.744 37.0474 127.494 37.5816C128.369 38.252 128.536 38.2976 129.495 38.809C130.036 39.1272 131.037 39.4795 131.745 39.65C133.495 40.0819 134.912 40.0932 136.704 39.7977C139.371 39.3659 141.455 37.7065 141.746 37.627C141.788 38.8204 142.997 40.0705 144.58 39.9568C145.872 39.8659 146.872 38.7408 146.997 37.2747V36.9792V16.5109V16.2382C146.83 13.5333 143.955 12.7718 142.622 14.2038C142.205 14.6357 141.746 15.1812 141.746 15.8631L140.288 14.9652C138.871 14.0674 136.329 13.4764 134.579 13.4764C127.786 13.4764 122.202 19.4544 122.202 26.7166Z" fill="#005C87"/>
<path fill-rule="evenodd" clip-rule="evenodd" d="M51.4404 26.7905C51.4404 25.5745 51.7321 24.5857 52.0654 23.6992C52.2321 23.3242 52.4405 22.8355 52.6906 22.4945C53.0239 21.9831 53.524 21.4262 53.9407 20.9943C55.0242 19.9147 56.9412 19.176 58.5247 19.176C59.6499 19.176 60.5667 19.4714 61.4002 19.8351C61.8169 20.0056 62.1503 20.2443 62.5253 20.5057C65.4008 22.5627 66.4843 26.7223 64.9007 30.1204C63.9005 32.1775 62.2753 33.5526 60.1917 34.1209L58.5664 34.3482C57.2329 34.3823 55.691 33.814 54.5658 33.0185C52.6906 31.6888 51.4404 29.2567 51.4404 26.7905ZM46.1479 26.7337C46.1479 28.6884 46.648 30.8478 47.2314 32.1548L47.7315 33.2344C47.9398 33.6094 48.1065 33.905 48.3566 34.2573C48.4816 34.4505 48.5233 34.5755 48.6483 34.7573L49.7318 36.1098C53.3573 39.9739 58.8998 41.0876 63.5672 38.8715C64.3173 38.5191 64.9007 38.1327 65.5675 37.6781C65.9008 37.4394 66.1508 37.2235 66.4426 36.9621C66.6509 36.7917 66.6926 36.7348 66.8593 36.5644C67.276 36.1098 66.9843 36.4961 67.6094 35.7574C67.7344 35.587 67.8595 35.496 67.9845 35.3256C68.2345 35.0074 68.4428 34.7118 68.6929 34.3709C70.8599 30.9955 71.61 26.5291 70.3181 22.5741C69.9848 21.574 69.8181 21.1762 69.3596 20.2897C69.2763 20.0965 69.1513 19.9488 69.068 19.7669C68.1928 18.1872 67.0677 16.9939 65.6508 15.9256C65.4841 15.7778 65.4008 15.7097 65.1924 15.5847C64.2756 14.9936 63.6922 14.63 62.6087 14.2322C54.4408 11.2546 46.1479 17.7554 46.1479 26.7337Z" fill="#005C87"/>
<path fill-rule="evenodd" clip-rule="evenodd" d="M74.1945 3.72253V37.0332C74.1945 38.7039 75.3614 39.9995 76.6115 39.9995C77.57 39.9995 78.0701 39.9313 78.7785 39.1471C79.1536 38.7266 79.5287 38.0448 79.5287 37.2265V3.58614C79.5287 3.02926 79.3203 2.41552 79.0702 2.00638L78.7785 1.6086C78.6952 1.48365 78.5702 1.41542 78.4452 1.31312C78.2785 1.16538 78.2368 1.15402 78.0284 1.05172C76.2782 0.0970623 74.1945 1.46086 74.1945 3.72253Z" fill="#005C87"/>
<path fill-rule="evenodd" clip-rule="evenodd" d="M8.01945 14.3234C8.01945 15.1028 8.06105 15.5136 8.39388 16.1983C9.64212 18.6734 12.929 19.2001 14.7596 17.3358C17.1729 14.9027 15.883 11.2794 12.8874 10.5526C11.556 10.2367 10.1414 10.679 9.22602 11.5848C8.89319 11.9324 8.60196 12.259 8.39388 12.7329C8.18586 13.1753 8.01945 13.702 8.01945 14.3234Z" fill="#85C0EA"/>
<path fill-rule="evenodd" clip-rule="evenodd" d="M27.6911 14.2179C27.6911 15.5658 27.9403 16.3661 28.8954 17.3138C30.8472 19.2514 34.0862 18.5985 35.2491 16.2502C36.4533 13.8914 35.1659 10.785 31.7608 10.4585C30.8887 10.3743 29.5598 10.9324 28.9785 11.5432C28.2725 12.2171 27.6911 13.1438 27.6911 14.2179Z" fill="#85C0EA"/>
<path fill-rule="evenodd" clip-rule="evenodd" d="M83.7569 11.1034V37.5042C83.7569 39.1067 86.4235 41.1296 88.8045 39.2316C89.2807 38.868 89.7569 38.0043 89.7569 37.3792V11.1716C89.7569 9.11454 86.7569 7.5575 84.7093 9.27364C84.2332 9.66006 83.7569 10.4556 83.7569 11.1034Z" fill="#005C87"/>
<path fill-rule="evenodd" clip-rule="evenodd" d="M83.7569 2.84308C83.7569 4.66221 84.9998 6.00202 86.7998 6.00202C88.3426 6.00202 89.7569 4.65125 89.7569 3.09362C89.7569 2.51625 89.714 2.24394 89.4569 1.71019C89.0283 0.838731 88.0426 0 87.014 0C86.0283 0 85.2997 0.108942 84.5712 0.893235C84.1426 1.32893 83.7569 2.01517 83.7569 2.84308Z" fill="#005C87"/>
</svg>
