<svg width="54" height="51" viewBox="0 0 54 51" fill="none" xmlns="http://www.w3.org/2000/svg">
<g opacity="0.2">
<path d="M45.1142 41.6083C44.2933 40.1538 43.3467 38.7711 42.2971 37.4732C40.4784 35.2276 38.3484 33.2356 35.9861 31.575C34.8055 30.7435 33.565 29.9954 32.2788 29.3366C31.2634 28.818 29.8659 27.8206 28.6853 27.9573C28.2221 28.0095 27.9388 28.3946 28.0927 28.8332C28.1727 29.0619 28.3383 29.2484 28.4947 29.4317C32.0421 33.5671 32.925 39.2611 36.4834 43.3535C37.5351 44.5618 38.8401 45.5993 40.3628 46.1384C41.7639 46.634 43.4594 46.6954 44.6523 45.6796C45.1816 45.2296 45.5848 44.6196 45.7117 43.9291C45.8649 43.0894 45.5144 42.3232 45.1123 41.6089L45.1142 41.6083Z" fill="#F4AAA9"/>
<path d="M20.0258 12.2411C18.7177 9.93634 17.3698 4.67367 15.1676 3.58002C13.7544 2.9187 12.1086 3.69779 11.3892 5.00146C10.0902 7.6444 11.8099 10.6542 13.3464 12.7818C14.6378 14.5665 16.1627 16.1641 17.6858 17.7499C19.3587 19.4921 20.8179 21.502 22.6814 23.0524C22.8969 23.2332 23.1268 23.4073 23.395 23.4884C24.7093 23.8816 24.4177 22.2462 24.1466 21.5082C23.5613 19.9117 22.8058 18.3969 22.1042 16.8502C21.4172 15.3361 20.8455 13.6855 20.0234 12.2398L20.0258 12.2411Z" fill="#F4AAA9"/>
<path d="M24.4254 30.5945C24.4191 30.6069 24.4146 30.6187 24.4089 30.6329C22.9218 33.9758 21.4248 37.3136 19.9285 40.6532C19.2525 42.1621 18.4606 43.6195 17.8181 45.1425C17.3408 46.2729 16.6973 47.7735 17.0612 49.0235C17.4968 50.5215 19.1678 51.2445 20.6229 50.9262C23.319 50.2159 24.4643 47.1922 25.0713 44.7642C25.6758 42.3474 25.9002 39.8297 26.1049 37.3535C26.2087 36.0912 27.9682 29.1353 25.8813 29.1112C25.113 29.1025 24.6947 29.9925 24.4273 30.5939L24.4254 30.5945Z" fill="#F4AAA9"/>
<path d="M29.914 17.3034C30.3706 15.6852 30.7503 14.0339 31.2227 12.4644C31.7979 10.5598 32.352 8.64738 32.8613 6.72462C33.3061 5.04407 34.3281 2.7222 33.7441 0.98866C33.0446 -1.09033 30.5453 0.63436 29.4741 1.41843C27.525 2.84772 25.9515 4.77443 25.443 7.18723C25.0799 8.9159 25.1117 10.7013 25.1886 12.4661C25.2801 14.6356 25.4351 16.8158 25.915 18.9387C26.1866 20.14 27.2929 23.8007 28.5525 21.125C29.1203 19.9157 29.5444 18.6204 29.9178 17.3022L29.914 17.3034Z" fill="#F4AAA9"/>
<path d="M22.8241 29.233C23.0513 28.3467 22.6571 27.785 21.6145 28.0033C20.0853 28.3228 18.7781 29.2988 17.3876 29.9522C13.9946 31.7603 10.6004 33.5709 7.2074 35.379C5.64516 36.2118 3.85878 37.0425 2.96323 38.6595C2.35427 39.5552 2.76038 40.2434 3.76885 40.4581C4.49788 40.7236 5.23519 40.9699 5.9867 41.164C9.07278 42.1629 12.0348 41.3213 14.4976 39.3167C16.2035 37.9286 17.7444 36.3434 19.1575 34.6567C20.4439 33.1226 22.0886 31.3653 22.756 29.4515C22.7817 29.3771 22.8035 29.3038 22.8223 29.2336L22.8241 29.233Z" fill="#F4AAA9"/>
<path d="M6.14939 23.5637C9.17151 24.9287 12.4119 25.8158 15.7091 26.1674C17.7623 26.3885 19.838 26.4099 21.8947 26.212C21.9478 26.1908 21.9922 26.1682 22.0298 26.1436C22.4265 25.8854 22.299 25.5479 21.9496 25.3047C20.6997 24.4377 19.434 23.5923 18.2282 22.6633C17.6009 22.1809 16.9818 21.6917 16.3696 21.192C16.151 21.0143 14.7525 19.6096 14.5557 19.6731C13.7307 18.9689 12.9007 18.2685 12.024 17.6286C11.6209 17.3345 9.85159 15.8385 9.36439 15.9956C6.26274 14.1018 -0.850445 14.1701 0.084005 19.2993C1.03529 21.3571 4.21632 22.5156 6.15127 23.5631L6.14939 23.5637Z" fill="#F4AAA9"/>
<path d="M45.5716 17.0569C42.5643 16.9181 39.6008 17.6463 36.8746 18.8856C35.2454 19.6263 33.6888 20.5214 32.1832 21.4849C31.4094 21.9786 30.6485 22.493 29.8919 23.0143C29.3572 23.3833 28.5286 23.7457 28.4444 24.4721C28.1864 26.6676 31.6126 26.4313 32.863 26.3507C36.0686 26.1422 39.2337 25.7378 42.3808 25.0786C45.3744 24.4502 48.3274 23.6384 51.2435 22.7185C52.3011 22.3671 54.1405 22.0407 53.9331 20.5704C52.6817 18.1336 48.1255 17.2014 45.5716 17.0569Z" fill="#F4AAA9"/>
</g>
</svg>
