<svg width="36" height="24" viewBox="0 0 36 24" fill="none" xmlns="http://www.w3.org/2000/svg">
<path d="M35.4781 2.24828C35.8781 0.687543 35.1839 -0.301632 33.348 0.0828833C30.6551 0.645449 28.3533 2.36419 25.9047 3.51464C19.9298 6.69865 13.9527 9.88701 7.97786 13.071C5.22683 14.5376 2.08112 16.0003 0.504099 18.8478C-0.568242 20.425 0.146897 21.637 1.92276 22.015C3.20653 22.4826 4.50489 22.9162 5.82827 23.2581C11.2627 25.0171 16.4787 23.535 20.8155 20.005C23.8195 17.5607 26.533 14.7692 29.0213 11.7991C31.2866 9.09755 34.1828 6.00309 35.3582 2.63308C35.4033 2.50195 35.4418 2.37293 35.4748 2.24935L35.4781 2.24828Z" fill="#F4AAA9"/>
</svg>
