<svg width="227" height="317" viewBox="0 0 227 317" fill="none" xmlns="http://www.w3.org/2000/svg">
<path opacity="0.5" d="M178.592 0.428414C172.281 1.39749 166.143 4.78712 162.648 10.2377C159.837 14.5431 158.518 19.5993 157.581 24.6002C156.313 31.32 155.676 38.1446 154.435 44.8724C153.274 51.5404 151.428 58.1637 148.074 64.0818C145.067 69.5664 140.765 74.3719 135.463 77.7092C132.351 79.5158 129.186 81.2759 125.726 82.3298C118.515 84.7956 110.818 85.126 103.265 84.9933C96.8178 84.8658 90.3439 84.7494 83.9188 85.4421C76.7946 86.2121 69.7021 87.6652 63.0226 90.3105C56.795 92.8331 50.8387 96.5839 46.873 102.123C43.4782 106.724 41.7395 112.529 42.1723 118.241C42.6089 124.96 45.5285 131.159 48.1331 137.255C50.9804 143.441 53.7393 149.676 56.2026 156.033C58.6467 162.404 60.9209 168.91 61.9021 175.687C62.6333 180.827 62.6488 186.129 61.4323 191.194C60.2116 196.793 57.2214 201.878 53.4428 206.138C48.5714 211.545 42.9036 216.147 37.7655 221.287C32.2644 226.718 27.1417 232.61 23.1592 239.262C20.5899 243.499 18.6431 248.179 18.0081 253.124C17.1087 259.674 18.1728 266.257 18.6847 272.794C19.2024 278.686 19.5166 284.671 18.4561 290.52C17.4602 296.134 15.7067 301.657 12.9692 306.677C11.1125 309.932 8.66626 313.084 5.20159 314.725C3.63415 315.739 1.75822 315.962 0.000203704 316.462C0.00200872 316.595 0.00939224 316.866 0.0111973 317C2.51562 316.572 5.16526 316.124 7.23669 314.565C12.182 311.089 14.9973 305.456 16.9269 299.891C18.9691 294.193 20.1241 288.147 20.0895 282.082C20.1143 274.859 18.9328 267.71 18.6026 260.508C18.3987 255.3 19.0583 249.986 21.1708 245.193C23.7594 239.168 27.6952 233.839 31.9155 228.868C36.441 223.639 41.4931 218.898 46.6047 214.254C51.3082 209.866 56.1239 205.374 59.2114 199.646C62.1228 194.48 63.3643 188.515 63.3843 182.62C63.415 176.522 62.1787 170.481 60.3476 164.688C58.1195 157.648 55.2704 150.825 52.298 144.075C49.4733 137.656 46.2461 131.372 44.254 124.611C42.5628 118.899 42.472 112.514 45.0371 107.042C47.9519 100.377 53.8641 95.4967 60.2727 92.3553C72.1922 86.9246 85.5014 85.4431 98.4789 85.7413C105.144 85.8415 111.86 86.0875 118.459 84.974C125.877 83.7012 133.153 80.9352 139.056 76.1843C144.377 72.0464 148.315 66.3469 151.019 60.2208C155.821 49.3057 156.27 37.2077 158.374 25.6266C159.384 20.0776 160.759 14.3891 164.146 9.76447C167.705 4.91357 173.461 2.02548 179.361 1.28666C186.206 0.2913 193.254 1.57194 199.531 4.38175C209.451 8.88246 218.147 16.1983 224.085 25.3415C224.939 26.6052 225.812 27.9302 226.086 29.4637C226.391 29.2166 226.923 28.8203 226.602 28.3769C224.053 22.8926 220.146 18.1658 215.742 14.0684C210.698 9.41988 204.906 5.53047 198.542 2.94054C192.281 0.340724 185.309 -0.656584 178.596 0.439922L178.592 0.428414Z" fill="#F1C977"/>
</svg>
