<svg width="60" height="60" viewBox="0 0 60 60" fill="none" xmlns="http://www.w3.org/2000/svg">
<rect opacity="0.3" width="60" height="60" rx="30" fill="#85C0EA"/>
<rect x="9" y="9.00024" width="42" height="42" rx="21" fill="#85C0EA"/>
<path d="M30.0027 37.2932C32.3777 37.2932 34.31 35.4418 34.31 33.166C34.31 30.8904 32.3777 29.0391 30.0027 29.0391C27.6275 29.0391 25.6953 30.8904 25.6953 33.166C25.6953 35.4418 27.6275 37.2932 30.0027 37.2932ZM27.4653 32.5166C27.7485 32.245 28.2077 32.245 28.4911 32.5166L29.4378 33.4237L31.5143 31.4341C31.7977 31.1627 32.257 31.1627 32.5402 31.4341C32.8234 31.7054 32.8234 32.1454 32.5402 32.417L29.9507 34.898C29.8147 35.0284 29.6303 35.1015 29.4378 35.1015C29.2454 35.1015 29.061 35.0284 28.9249 34.898L27.4653 33.4993C27.1821 33.2279 27.1821 32.7879 27.4653 32.5166Z" fill="white"/>
<path d="M18 39.7524C18 40.9917 19.0524 42.0001 20.3458 42.0001L39.6542 42.0001C40.9476 42.0001 42 40.9917 42 39.7525L42 25.7219L18 25.7219L18 39.7524ZM30.0002 27.6491C33.1751 27.6491 35.7581 30.1239 35.7581 33.166C35.7581 36.2081 33.1751 38.6831 30.0002 38.6831C26.8252 38.6831 24.2421 36.2081 24.2421 33.166C24.2421 30.1239 26.8252 27.6491 30.0002 27.6491Z" fill="white"/>
<path d="M41.9996 24.332L41.9996 22.191C41.9996 20.9515 40.9474 19.9434 39.6538 19.9434L38.3314 19.9434L38.3314 21.1916C38.3314 21.5757 38.0064 21.8865 37.606 21.8865C37.2053 21.8865 36.8808 21.5757 36.8808 21.1916L36.8808 19.9434L35.4552 19.9434L35.4552 21.1916C35.4552 21.5757 35.1309 21.8865 34.7299 21.8865C34.3296 21.8865 34.0045 21.5757 34.0045 21.1916L34.0045 19.9434L25.9955 19.9434L25.9955 21.1916C25.9955 21.5757 25.6706 21.8865 25.2702 21.8865C24.8693 21.8865 24.5448 21.5757 24.5448 21.1916L24.5448 19.9434L23.1194 19.9434L23.1194 21.1916C23.1194 21.5757 22.7943 21.8865 22.394 21.8865C21.9936 21.8865 21.6688 21.5757 21.6688 21.1916L21.6688 19.9434L20.3458 19.9434C19.0522 19.9434 18 20.9515 18 22.191L18 24.332L41.9996 24.332Z" fill="white"/>
<path d="M38.3335 18.6949C38.3335 18.3113 38.0084 18 37.608 18C37.2073 18 36.8828 18.3113 36.8828 18.6949L36.8828 19.9431L38.3335 19.9431L38.3335 18.6949Z" fill="white"/>
<path d="M35.4585 18.6949C35.4585 18.3113 35.1342 18 34.7332 18C34.3329 18 34.0078 18.3113 34.0078 18.6949L34.0078 19.9431L35.4585 19.9431L35.4585 18.6949Z" fill="white"/>
<path d="M25.9975 18.6949C25.9975 18.3113 25.6727 18 25.2723 18C24.8714 18 24.5469 18.3113 24.5469 18.6949L24.5469 19.9431L25.9975 19.9431L25.9975 18.6949Z" fill="white"/>
<path d="M23.1186 18.6949C23.1186 18.3113 22.7936 18 22.3932 18C21.9928 18 21.668 18.3113 21.668 18.6949L21.668 19.9431L23.1186 19.9431L23.1186 18.6949Z" fill="white"/>
</svg>
