<svg width="60" height="60" viewBox="0 0 60 60" fill="none" xmlns="http://www.w3.org/2000/svg">
<rect opacity="0.3" width="60" height="60" rx="30" fill="#85C0EA"/>
<rect x="9" y="9.00024" width="42" height="42" rx="21" fill="#85C0EA"/>
<path fill-rule="evenodd" clip-rule="evenodd" d="M30.9297 41.9743C33.3157 41.9743 34.8374 41.8674 36.9104 40.5557C39.5301 38.8983 41.1128 36.3484 41.5033 33.1036L41.9039 28.9664C41.931 28.7057 41.9321 28.5478 41.9694 28.3018C42.0676 27.6549 41.9847 27.7841 40.6614 27.7841C38.9613 27.7841 37.1825 28.4891 36.1129 29.143C33.5029 30.7384 31.8694 33.2061 31.4328 36.4266C31.3625 36.9457 31.364 37.2824 31.3096 37.8162C31.2054 38.8363 30.9297 41.1325 30.9297 41.9743Z" fill="white"/>
<path fill-rule="evenodd" clip-rule="evenodd" d="M27.7127 41.9752C29.294 41.9752 29.2006 42.269 29.0017 40.8251C28.3723 36.2574 29.0667 32.6458 24.025 29.2189C22.2701 28.0262 20.4218 27.7849 18.2162 27.7849C17.8996 27.7849 18.0187 27.9868 18.0373 28.1882L18.5161 33.0608C18.7233 34.9436 19.2232 36.2968 20.0517 37.5597C20.509 38.2563 20.8518 38.6324 21.4144 39.2048C22.9045 40.7209 25.3432 41.9752 27.7127 41.9752Z" fill="white"/>
<path fill-rule="evenodd" clip-rule="evenodd" d="M30.065 30.5746C31.5612 30.5746 33.0473 29.2164 33.0473 27.3858C33.0473 25.5966 31.2715 24.0125 29.314 24.4705C25.861 25.2784 26.3816 30.5746 30.065 30.5746Z" fill="white"/>
<path fill-rule="evenodd" clip-rule="evenodd" d="M34.6992 23.7195C34.6992 26.296 38.231 26.0844 38.231 23.7991C38.231 22.8432 37.4463 22.0347 36.4936 22.016C35.5728 21.998 34.6992 22.712 34.6992 23.7195Z" fill="white"/>
<path fill-rule="evenodd" clip-rule="evenodd" d="M21.832 23.6399C21.832 26.4465 25.3449 25.9789 25.3449 23.7992C25.3449 21.4741 21.832 21.4875 21.832 23.6399Z" fill="white"/>
<path fill-rule="evenodd" clip-rule="evenodd" d="M28.2578 19.6538C28.2578 22.7468 32.6096 21.7573 31.6259 19.1026C31.4411 18.604 30.8456 18.0926 30.1112 18.0086C29.2094 17.9053 28.2578 18.7505 28.2578 19.6538Z" fill="white"/>
</svg>
