<svg width="18" height="15" viewBox="0 0 18 15" fill="none" xmlns="http://www.w3.org/2000/svg">
<path fill-rule="evenodd" clip-rule="evenodd" d="M8.11601 4.81492H9.88385C10.3119 4.81492 10.0352 5.68547 10.0044 6.05395C10.1422 5.96218 10.2733 5.74882 10.3937 5.60187C10.8665 5.02473 10.7931 5.05995 11.6015 5.8641C11.7139 5.97588 12.2945 6.49968 12.2945 6.61352C12.2945 6.88947 12.2626 6.87836 11.9274 7.12762C11.7837 7.23452 11.5835 7.35538 11.491 7.49284C11.7373 7.49284 11.9948 7.43746 12.2486 7.40378C12.3845 7.38574 12.4685 7.35531 12.5857 7.44118C12.6712 7.50387 12.7365 7.59776 12.7365 7.73266V9.21149C12.7365 9.86698 12.1721 9.53124 11.491 9.53124C11.5678 9.64536 11.8125 9.79853 11.9334 9.89051C12.5467 10.3569 12.3738 10.3917 11.6618 11.1C10.8629 11.8947 10.8739 12.0855 10.2059 11.1694C10.1784 11.1317 10.1566 11.0933 10.1199 11.0551C10.062 10.9946 10.0965 11.0033 10.0044 10.9701C10.0571 11.1951 10.0704 11.4521 10.1096 11.707C10.1548 12.0011 10.0813 12.2092 9.80352 12.2092H8.19639C7.6431 12.2092 7.98634 11.3789 7.99549 10.9701C7.85192 11.0658 7.74599 11.2543 7.62461 11.4005C7.31752 11.7705 7.23829 11.9974 6.71981 11.4797C6.51323 11.2735 5.70533 10.5764 5.70533 10.3306C5.70533 10.1878 5.75174 10.1364 5.84048 10.0654C5.92035 10.0015 5.9951 9.95442 6.07276 9.89678C6.18827 9.81106 6.44026 9.63325 6.50889 9.53127C5.15686 9.53127 5.26335 10.1709 5.26335 7.89256C5.26335 7.55647 5.35467 7.35914 5.68158 7.39369C5.99569 7.42686 6.23554 7.49287 6.54907 7.49287C6.51515 7.46354 6.48407 7.43651 6.4398 7.40172C5.39005 6.57656 5.4205 6.84984 6.78005 5.4844C6.87492 5.38911 6.9433 5.27378 7.09481 5.23505C7.28281 5.187 7.39401 5.30301 7.47496 5.41271C7.55744 5.52453 7.6293 5.61609 7.71978 5.72873C7.8124 5.84401 7.87962 5.97681 7.99549 6.05398C7.98863 5.7474 7.69122 4.81495 8.11603 4.81495L8.11601 4.81492ZM0 12.5289C0 12.6804 0.244201 12.6887 0.401788 12.6887H14.6249V10.8502C14.6249 10.5548 14.8195 10.2419 15.0019 10.1061C15.1886 9.96707 15.3665 9.89368 15.6087 9.87403L17.9999 9.89093V4.45518H0V12.5289V12.5289Z" fill="#005C87" fill-opacity="0.6"/>
<path fill-rule="evenodd" clip-rule="evenodd" d="M3.03695e-05 1.89726V3.8557H17.9999V1.8173C17.9999 1.20934 17.4007 0.698196 16.674 0.698196H16.2722C16.2722 1.14541 16.3396 2.2333 16.1527 2.53773C16.0788 2.658 15.9008 2.81652 15.7097 2.81652C15.0953 2.81652 14.3776 2.91767 14.1042 2.6551C14.0615 2.61412 14.1044 2.66418 14.0462 2.59285C14.0095 2.5479 14.0056 2.54066 13.9808 2.49799C13.8263 2.23219 13.9017 1.06722 13.9017 0.698196H13.2187V2.17703C13.2187 2.51667 12.9508 2.81652 12.6562 2.81652H11.4106C11.0603 2.81652 10.8481 2.43103 10.8481 2.05712V0.698181H7.15174V2.17701C7.15174 2.4895 6.88517 2.8165 6.58923 2.8165H5.34371C5.04785 2.8165 4.7812 2.51772 4.7812 2.09707V0.698166C3.95998 0.698166 4.0971 0.614195 4.09815 1.25771C4.10097 2.98267 4.17542 2.8165 2.29016 2.8165C2.11273 2.8165 1.94368 2.67788 1.86303 2.56196C1.59828 2.18135 1.9581 0.698181 1.64732 0.698181C1.17249 0.698181 0.749382 0.697758 0.430685 1.0067C0.197736 1.23251 0 1.45522 0 1.89724L3.03695e-05 1.89726Z" fill="#005C87" fill-opacity="0.6"/>
<path fill-rule="evenodd" clip-rule="evenodd" d="M14.8659 13.2883H0C0 13.7639 0.00399359 14.0562 0.453082 14.4363C0.683571 14.6314 1.0337 14.7272 1.44642 14.7272H16.5936C17.368 14.7272 17.9999 14.2904 17.9999 13.5681V10.4905C17.7183 10.4905 17.7558 10.5534 17.4876 10.8202L15.318 12.9785C15.2002 13.0959 15.0732 13.2883 14.866 13.2883L14.8659 13.2883Z" fill="#005C87" fill-opacity="0.6"/>
<path fill-rule="evenodd" clip-rule="evenodd" d="M9.04027 10.2107C8.03764 10.2107 7.31261 9.49673 7.31261 8.65193C7.31261 8.16908 7.32758 7.85263 7.64979 7.42858C8.04681 6.90606 8.79282 6.68555 9.4438 6.85158C10.8878 7.21983 11.1259 9.0879 10.0171 9.90342C9.78093 10.0771 9.43225 10.2107 9.04027 10.2107V10.2107ZM8.63848 6.37373C8.63848 6.4696 8.39039 6.57737 8.31183 6.60835C7.87722 6.77967 7.85439 6.94046 7.48482 6.44223C7.36922 6.28639 7.25357 6.16509 7.15189 6.01402L6.4993 6.64383C6.91711 7.19038 7.46926 6.93351 7.10103 7.80199C6.85872 8.37346 6.75418 8.05242 5.90637 8.05242V8.97171C6.52551 8.958 6.9122 8.63326 7.08778 9.15538C7.18864 9.4553 7.23224 9.37062 7.23224 9.69116C7.23224 9.87328 6.632 10.1879 6.50903 10.3706L7.14213 11.0198C7.24355 10.8739 7.35505 10.7419 7.46168 10.5988C7.81293 10.1276 7.82742 10.2123 8.29448 10.393C8.8859 10.6219 8.55811 10.6672 8.55811 11.6096C9.90932 11.6096 9.36167 11.7746 9.36167 10.6504C9.36167 10.5301 9.59324 10.4362 9.70536 10.3928C10.2333 10.1884 10.2235 10.0821 10.8483 11.0101L11.5008 10.3803C11.3344 10.1391 10.7679 9.90532 10.7679 9.65117C10.7679 9.45282 10.8363 9.37075 10.8994 9.22242C11.1673 8.59294 11.2415 8.95285 12.0938 8.97171V8.05242C11.3274 8.05242 11.117 8.36161 10.9104 7.8307C10.8221 7.60369 10.7679 7.55809 10.7679 7.33299C10.7679 7.14826 11.3742 6.82717 11.4911 6.65351L10.858 6.00434C10.765 6.13858 10.311 6.77342 10.1652 6.77342C10.0076 6.77342 9.4505 6.52623 9.39287 6.42157C9.31874 6.28698 9.44562 5.5707 9.48219 5.41448H8.55809C8.55809 5.77656 8.63845 6.01166 8.63845 6.37373H8.63848Z" fill="#005C87" fill-opacity="0.6"/>
<path fill-rule="evenodd" clip-rule="evenodd" d="M7.91511 8.49206C7.91511 8.8336 8.02063 9.06397 8.24536 9.28264C9.06772 10.0829 10.0847 9.26261 10.0847 8.61195V8.41211C10.0847 7.567 8.8891 7.02479 8.21423 7.75044C8.05461 7.92207 7.91511 8.17932 7.91511 8.49206Z" fill="#005C87" fill-opacity="0.6"/>
<path fill-rule="evenodd" clip-rule="evenodd" d="M2.37054 0.138621V2.21699H3.49553V0.138621C3.49553 -0.0699257 3.07014 0.0187136 2.49107 0.0187136C2.39849 0.0187136 2.37054 0.0465379 2.37054 0.138621Z" fill="#005C87" fill-opacity="0.6"/>
<path fill-rule="evenodd" clip-rule="evenodd" d="M14.5044 0.138634V2.217H15.6294V0.0187266H14.6249C14.5323 0.0187266 14.5044 0.046551 14.5044 0.138634Z" fill="#005C87" fill-opacity="0.6"/>
<path fill-rule="evenodd" clip-rule="evenodd" d="M11.4911 2.21699H12.4956C12.5882 2.21699 12.6161 2.18918 12.6161 2.0971V0.138634C12.6161 0.046551 12.5882 0.0187266 12.4956 0.0187266H11.4911V2.217V2.21699Z" fill="#005C87" fill-opacity="0.6"/>
<path fill-rule="evenodd" clip-rule="evenodd" d="M5.42422 2.217H6.50905V0.0187266H5.42422V2.217Z" fill="#005C87" fill-opacity="0.6"/>
<path fill-rule="evenodd" clip-rule="evenodd" d="M15.2277 12.1292C15.4135 12.0798 15.5304 11.888 15.6596 11.7595C15.9251 11.4953 16.7992 10.6627 16.9152 10.4905C16.4494 10.4905 15.6724 10.3859 15.3789 10.601C15.1733 10.7517 15.2272 10.9611 15.2277 11.2898C15.228 11.5696 15.2277 11.8494 15.2277 12.1292Z" fill="#005C87" fill-opacity="0.6"/>
</svg>
