<svg width="60" height="60" viewBox="0 0 60 60" fill="none" xmlns="http://www.w3.org/2000/svg">
<circle cx="30" cy="30" r="30" fill="#76AB78"/>
<path d="M43.1822 27.4823C43.0715 27.6668 42.8869 27.7775 42.6655 27.7775C42.4441 27.7775 42.2596 27.6668 42.1489 27.4823L41.0787 25.7109L40.8203 26.1538C40.7096 26.3383 40.5251 26.449 40.3037 26.449H37.7573L41.6322 30.3239C41.7798 30.4715 42.0012 30.4715 42.1489 30.3239L46.0237 26.449H43.8464L43.1822 27.4823Z" fill="white"/>
<path d="M48.3445 23.9756H47.1636C47.1267 23.1638 46.7207 22.3519 45.9089 21.8352C44.8386 21.1341 43.3625 21.3186 42.4399 22.2412L41.8495 22.8316L41.2221 22.2043C40.0043 20.9865 37.9746 21.1341 36.9782 22.6471C36.6829 23.0531 36.5722 23.5328 36.5353 24.0125H35.3544C35.0223 24.0125 34.7271 24.3078 34.7271 24.6399C34.7271 24.972 34.9854 25.2673 35.3544 25.2673H39.9305L40.5578 24.234C40.7792 23.8649 41.4066 23.8649 41.628 24.234L42.6982 26.0053L42.9566 25.5625C43.0673 25.378 43.2518 25.2673 43.4732 25.2673H48.3814C48.7135 25.2673 49.0088 24.972 49.0088 24.6399C48.9719 24.2709 48.7135 23.9756 48.3445 23.9756Z" fill="white"/>
<path d="M19.3401 33.6821L14.2105 41.764C13.6569 42.6128 13.9153 43.7568 14.764 44.3104C15.0593 44.4949 15.4283 44.5687 15.7604 44.5687C16.3509 44.5687 16.9783 44.2735 17.3104 43.7199L22.3662 35.7856L21.0008 35.1583C20.2996 34.863 19.7091 34.3095 19.3401 33.6821Z" fill="white"/>
<path d="M31.6642 22.9447C33.4374 22.9447 34.8748 21.5072 34.8748 19.7341C34.8748 17.9609 33.4374 16.5234 31.6642 16.5234C29.8911 16.5234 28.4536 17.9609 28.4536 19.7341C28.4536 21.5072 29.8911 22.9447 31.6642 22.9447Z" fill="white"/>
<path d="M35.2112 27.7779L32.9601 28.4053L31.853 25.9328C31.5209 25.1947 31.0042 24.5673 30.3031 24.1245L27.646 22.39C26.871 21.8734 25.9484 21.6519 25.0258 21.7258L21.1509 22.021C20.745 22.0579 20.376 22.2424 20.1176 22.5376L17.4975 25.6375C16.9439 26.2649 17.0177 27.2613 17.682 27.7779C18.3094 28.3315 19.3058 28.2577 19.8224 27.5934L22.0366 24.9733L24.3616 24.7888L21.0033 30.7671C20.745 31.21 20.7081 31.7266 20.8557 32.2064C21.0033 32.6861 21.3724 33.0921 21.8152 33.3135L26.9817 35.7491L24.1032 39.6609C23.5128 40.4728 23.6973 41.6168 24.5092 42.2442C24.8413 42.4656 25.2103 42.6132 25.5794 42.6132C26.1329 42.6132 26.6865 42.3549 27.0555 41.8751L31.2256 36.1551C31.5578 35.7122 31.6685 35.1587 31.5209 34.6051C31.3733 34.0885 31.0042 33.6456 30.5245 33.3873L26.9079 31.6897L29.3805 27.9994L30.6352 30.804C30.8935 31.3576 31.4471 31.7266 32.0375 31.7266C32.1851 31.7266 32.2958 31.6897 32.4435 31.6528L35.9862 30.6564C36.7981 30.435 37.2778 29.5862 37.0564 28.7743C36.8719 27.9994 36.0231 27.5196 35.2112 27.7779Z" fill="white"/>
<circle cx="30" cy="30" r="30" fill="#76AB78"/>
<g clip-path="url(#clip0_2_10343)">
<path d="M41.4844 16.7578C40.8412 16.7578 40.1871 16.944 39.668 17.2467V15.8789C39.668 15.3934 39.2745 15 38.7891 15H21.2109C20.7255 15 20.332 15.3934 20.332 15.8789V17.2467C19.8129 16.944 19.1588 16.7578 18.5156 16.7578C16.5767 16.7578 15 18.3345 15 20.2734V23.2569C15 24.4354 15.5854 25.5288 16.5656 26.182L20.7234 28.9148C20.7386 28.9249 20.757 28.9208 20.7726 28.9298C21.4217 30.729 22.7855 32.1816 24.7979 33.1214C26.1038 33.7319 26.9646 34.9516 27.2386 36.2109H32.7169C32.9014 34.9926 33.5974 33.7847 34.6804 33.1721C36.7901 31.9781 38.3849 30.7226 39.1537 28.9522C39.1937 28.9335 39.2387 28.94 39.2766 28.9149L43.4345 26.182C44.4146 25.5288 45 24.4354 45 23.2569V20.2734C45 18.3345 43.4233 16.7578 41.4844 16.7578ZM17.5406 24.7195C17.0505 24.3925 16.7578 23.8457 16.7578 23.2569V20.2734C16.7578 19.3044 17.5466 18.5156 18.5156 18.5156C19.4846 18.5156 20.332 19.3044 20.332 20.2734V26.4258C20.332 26.4672 20.3396 26.5056 20.3403 26.5468L17.5406 24.7195ZM34.9928 23.2054L33.1337 25.0173L33.5722 27.575C33.6289 27.9046 33.4932 28.2377 33.2229 28.4342C32.9507 28.6329 32.5891 28.6557 32.2976 28.5012L30 27.2944L27.7023 28.5012C27.4087 28.6574 27.0483 28.6317 26.7771 28.4342C26.5067 28.2377 26.3711 27.9046 26.4277 27.575L26.8663 25.0173L25.0072 23.2054C24.7677 22.972 24.6819 22.6226 24.7849 22.3051C24.8887 21.9866 25.1634 21.7549 25.4947 21.7068L28.0627 21.3335L29.212 19.0057C29.5072 18.4049 30.4925 18.4049 30.7879 19.0057L31.9371 21.3335L34.5052 21.7068C34.8364 21.7549 35.1111 21.9866 35.215 22.3051C35.3181 22.6226 35.2322 22.972 34.9928 23.2054ZM43.2422 23.2569H43.2422C43.2422 23.8457 42.9495 24.3925 42.4594 24.7195L39.6584 26.5478C39.659 26.5053 39.668 26.4688 39.668 26.4258V20.2734C39.668 19.3044 40.5154 18.5156 41.4844 18.5156C42.4535 18.5156 43.2422 19.3044 43.2422 20.2734V23.2569Z" fill="white"/>
<path d="M37.0312 42.3633H33.5156C33.0298 42.3633 32.6367 41.9702 32.6367 41.4844C32.6367 40.9986 33.0298 40.6055 33.5156 40.6055H36.1523V39.7266C36.1523 38.7557 35.3654 37.9688 34.3945 37.9688H25.6055C24.6346 37.9688 23.8477 38.7557 23.8477 39.7266V40.6055H26.4844C26.9702 40.6055 27.3633 40.9986 27.3633 41.4844C27.3633 41.9702 26.9702 42.3633 26.4844 42.3633H22.9688C22.4834 42.3633 22.0898 42.7567 22.0898 43.2422V44.1211C22.0898 44.6065 22.4834 45 22.9688 45H37.0312C37.5166 45 37.9102 44.6065 37.9102 44.1211V43.2422C37.9102 42.7567 37.5166 42.3633 37.0312 42.3633Z" fill="white"/>
</g>
<defs>
<clipPath id="clip0_2_10343">
<rect width="30" height="30" fill="white" transform="translate(15 15)"/>
</clipPath>
</defs>
</svg>
