<svg width="252" height="436" viewBox="0 0 252 436" fill="none" xmlns="http://www.w3.org/2000/svg">
<path opacity="0.2" d="M151.194 306.782H85.8521C86.0475 288.616 87.6102 273.379 90.5403 261.073C93.4704 248.571 98.3539 237.241 105.191 227.083C112.223 216.926 121.502 206.182 133.027 194.852C142.013 186.257 150.119 178.151 157.347 170.532C164.574 162.719 170.337 154.514 174.634 145.919C178.932 137.129 181.081 127.069 181.081 115.739C181.081 103.433 179.03 92.9821 174.927 84.3871C170.825 75.7921 164.77 69.2482 156.761 64.7554C148.947 60.2625 139.18 58.0161 127.46 58.0161C117.693 58.0161 108.512 59.9695 99.9167 63.8763C91.3217 67.5878 84.3871 73.448 79.1129 81.457C73.8387 89.2706 71.0063 99.6236 70.6156 112.516H0C0.390681 87.9032 6.2509 67.1971 17.5806 50.3978C28.9104 33.5986 44.147 20.9991 63.2903 12.5995C82.4337 4.19982 103.823 0 127.46 0C153.635 0 176.002 4.49283 194.559 13.4785C213.116 22.2688 227.279 35.1613 237.046 52.1559C247.008 68.9552 251.989 89.2706 251.989 113.102C251.989 130.292 248.571 145.919 241.734 159.984C234.897 173.853 226.009 186.843 215.07 198.954C204.131 210.87 192.313 222.786 179.616 234.702C168.677 244.664 161.254 255.505 157.347 267.226C153.44 278.751 151.389 291.936 151.194 306.782ZM79.9919 398.202C79.9919 387.653 83.6057 378.765 90.8333 371.538C98.0609 364.115 107.926 360.403 120.427 360.403C132.929 360.403 142.794 364.115 150.021 371.538C157.249 378.765 160.863 387.653 160.863 398.202C160.863 408.75 157.249 417.736 150.021 425.159C142.794 432.386 132.929 436 120.427 436C107.926 436 98.0609 432.386 90.8333 425.159C83.6057 417.736 79.9919 408.75 79.9919 398.202Z" fill="#F1C977"/>
</svg>
