<svg width="710" height="199" viewBox="0 0 710 199" fill="none" xmlns="http://www.w3.org/2000/svg">
<g clip-path="url(#clip0_2_10558)">
<path opacity="0.3" d="M774.826 162.813C748.606 164.379 725.612 143.681 724.852 117.34C724.654 110.501 725.95 103.89 728.434 97.536C729.335 95.2317 730.253 92.5745 731.859 90.6552C733.921 88.1909 736.51 88.6813 736.62 91.9144C736.753 95.8764 734.231 100.583 730.945 102.73C725.319 106.409 717.691 101.944 713.475 98.0616C703.382 88.7677 697.745 74.2258 695.775 60.9046C693.973 48.7104 693.749 34.0665 698.956 22.654C699.658 21.1184 700.463 19.6601 701.385 18.2481C701.684 17.7931 702.197 16.7742 702.667 16.3939L703.363 15.5667L707.73 16.2362C709.424 17.9382 708.345 22.9882 707.711 24.9856C706.099 30.0691 702.254 34.2355 698.073 37.3909C688.538 44.5805 677.541 45.9274 666.256 42.1843C641.622 34.0165 627.743 9.59325 605.03 -1.76368C584.264 -12.1461 559.84 -6.66858 541.749 6.65849C522.25 21.0233 511.047 43.8366 503.727 66.3423C497.603 85.17 488.647 117.025 513.194 126.816C520.6 129.772 529.732 128.808 534.376 121.664C538.703 115.008 536.911 106.039 532.573 99.8635C526.567 91.316 515.881 89.0257 506.036 90.866C493.649 93.1815 483.676 100.965 474.427 109.064C464.921 117.392 455.627 125.519 443.892 130.561C433.586 134.986 422.415 137.258 411.214 137.455C387.942 137.867 364.725 129.211 348.476 112.325C330.2 93.3311 318.749 63.3069 326.469 37.1445C328.085 31.6664 330.825 24.6929 334.91 20.6159C339.45 16.0871 340.833 25.4538 341.236 28.4835C342.092 34.9305 341.22 41.5237 339.511 47.7597C332.499 73.3401 311.282 93.8136 283.554 91.3284C270.456 90.1534 258.149 85.1058 245.619 81.4815C233.695 78.0314 221.627 76.3976 209.267 78.2139C197.762 79.9038 186.634 84.1307 176.958 90.5956C168.79 96.0551 157.353 104.964 157.942 115.991C158.305 122.835 167.424 130.522 173.593 124.78C176.327 122.236 176.65 118.139 175.483 114.754C174.064 110.64 170.486 108.014 166.491 106.633C156.403 103.149 144.006 105.076 134.083 108.22C122.846 111.783 112.549 118.027 103.682 125.748C84.6213 142.341 73.2431 165.346 65.3242 188.965C61.1897 201.302 57.8953 213.895 54.6257 226.483C54.4729 227.07 55.3946 227.245 55.5478 226.663C62.6279 199.395 69.9242 171.355 85.7405 147.638C99.9584 126.319 122.8 108.359 149.04 106.171C155.381 105.641 162.726 105.538 168.54 108.511C171.732 110.142 174.148 112.735 174.924 116.296C175.701 119.857 174.457 124.397 170.437 125.531C166.858 126.541 162.928 124.221 160.867 121.382C158.416 118.003 158.465 113.934 159.855 110.131C162.299 103.447 168.223 98.2406 173.74 94.0456C184.398 85.943 197.215 80.7219 210.485 78.9885C224.14 77.2053 237.166 79.7794 250.179 83.8309C262.617 87.7033 275.158 92.4065 288.353 92.4968C299.899 92.5764 311.072 88.5042 319.969 81.1478C328.939 73.7306 335.165 63.4546 338.988 52.5432C342.256 43.2188 345.016 29.841 340.116 20.5251C337.376 15.3158 333.26 20.7886 331.445 23.7888C327.783 29.8417 325.248 36.5685 324.157 43.5527C320.234 68.6935 330.443 94.9796 347.866 113.038C363.226 128.957 384.694 137.646 406.675 138.358C417.618 138.713 428.646 137.113 438.982 133.482C450.254 129.525 459.828 123.043 468.804 115.251C479.269 106.167 489.552 96.0717 503.344 92.4249C516.086 89.055 530.383 92.9495 534.848 106.447C536.547 111.586 536.393 117.647 532.946 122.054C529.309 126.706 523.376 128.242 517.733 127.179C503.853 124.565 497.524 111.417 497.742 98.3289C497.975 84.2072 503.179 69.5735 508.186 56.5141C512.963 44.0551 519.135 32.0081 527.582 21.6232C543.61 1.91973 570.598 -11.8988 596.19 -4.28708C621.775 3.32271 636.034 29.1905 659.593 40.4945C668.808 44.9173 679.704 47.1589 689.483 43.3023C697.468 40.1519 705.865 33.826 708.597 25.3415C709.58 22.2877 710.108 17.3984 707.948 14.6702C705.624 11.7363 702.861 14.4882 701.268 16.723C694.521 26.1906 693.809 38.2476 693.992 49.4822C694.2 62.3621 697.05 74.9725 703.394 86.2609C708.13 94.6932 716.77 106.284 727.914 104.828C733.661 104.077 738.295 96.6762 737.509 91.0799C737.254 89.2817 736.228 87.8896 734.283 88.0424C730.924 88.3019 729.235 93.1002 728.174 95.6604C719.251 117.198 725.121 142.285 744.89 155.514C753.737 161.434 764.273 164.384 774.899 163.749C775.5 163.712 775.428 162.776 774.826 162.813Z" fill="#F1C977"/>
<g opacity="0.2">
<path d="M705.862 138.615C704.936 134.144 705.511 124.809 702.481 121.853C700.515 120.022 697.409 120.43 695.545 122.185C692.019 125.832 693.247 131.672 694.642 135.971C695.812 139.58 697.466 143.001 699.124 146.408C700.942 150.15 702.272 154.213 704.501 157.741C704.761 158.149 705.043 158.558 705.443 158.832C707.39 160.171 707.772 157.337 707.718 155.983C707.604 153.057 707.166 150.173 706.834 147.27C706.51 144.424 706.445 141.418 705.862 138.611V138.615Z" fill="#F1C977"/>
<path d="M703.373 171.024C703.373 171.024 703.343 171.058 703.328 171.077C699.127 175.769 694.912 180.45 690.697 185.131C688.791 187.248 686.729 189.216 684.869 191.375C683.49 192.977 681.645 195.094 681.58 197.337C681.5 200.023 683.855 202.09 686.405 202.338C691.196 202.602 694.668 198.249 696.944 194.591C699.207 190.948 700.907 186.943 702.55 182.991C703.388 180.976 709.944 170.505 706.537 169.361C705.283 168.941 704.128 170.177 703.369 171.024H703.373Z" fill="#F1C977"/>
<path d="M701.466 167.941C702.308 166.606 701.957 165.481 700.136 165.286C697.464 165 694.807 165.908 692.185 166.247C685.671 167.419 679.162 168.59 672.648 169.761C669.649 170.299 666.287 170.718 663.966 172.896C662.495 174.045 662.796 175.387 664.336 176.268C665.388 177.089 666.466 177.882 667.594 178.595C672.118 181.865 677.412 182.051 682.508 180.068C686.037 178.695 689.395 176.909 692.601 174.895C695.516 173.06 699.137 171.05 701.245 168.265C701.328 168.155 701.401 168.048 701.469 167.941H701.466Z" fill="#F1C977"/>
<path d="M677.156 149.838C681.383 153.672 686.223 156.838 691.437 159.161C694.685 160.607 698.069 161.74 701.541 162.503C701.64 162.495 701.724 162.48 701.797 162.461C702.582 162.247 702.551 161.625 702.109 161.046C700.52 158.963 698.892 156.907 697.41 154.751C696.64 153.63 695.881 152.501 695.142 151.356C694.879 150.948 693.328 147.908 692.973 147.908C691.994 146.317 691.003 144.73 689.909 143.22C689.406 142.525 687.298 139.134 686.414 139.134C682.336 134.389 670.65 130.742 669.473 139.645C669.945 143.521 674.542 147.099 677.156 149.842V149.838Z" fill="#F1C977"/>
</g>
</g>
<defs>
<clipPath id="clip0_2_10558">
<rect width="199" height="710" fill="white" transform="translate(0 199) rotate(-90)"/>
</clipPath>
</defs>
</svg>
