<svg width="94" height="87" viewBox="0 0 94 87" fill="none" xmlns="http://www.w3.org/2000/svg">
<g opacity="0.2">
<path d="M68.4337 79.3628C67.8581 76.5472 67.0386 73.7774 66.0055 71.0953C64.2139 66.4522 61.7781 62.0647 58.7857 58.0892C57.2915 56.1015 55.6562 54.2206 53.899 52.4618C52.5114 51.0731 50.7465 48.7038 48.7415 48.2994C47.9562 48.143 47.2891 48.6199 47.3082 49.4211C47.3196 49.837 47.4911 50.2299 47.6512 50.6153C51.2763 59.2681 49.7135 69.0694 53.3805 77.6612C54.4631 80.1983 56.0527 82.5905 58.2636 84.2768C60.2953 85.8296 63.0399 86.8253 65.5329 85.7914C66.6383 85.3336 67.618 84.5477 68.1936 83.4832C68.8873 82.1899 68.7196 80.7439 68.4375 79.3628H68.4337Z" fill="#F1C977"/>
<path d="M42.8607 17.9571C41.9344 13.4857 42.51 4.14988 39.4795 1.19309C37.5126 -0.638203 34.4059 -0.229967 32.5419 1.52503C29.0159 5.17236 30.2433 11.0134 31.6385 15.3132C32.8087 18.9223 34.463 22.3446 36.1212 25.7516C37.9395 29.4943 39.2699 33.5575 41.4998 37.0865C41.759 37.4948 42.0411 37.903 42.4414 38.1777C44.3892 39.5168 44.7704 36.6821 44.717 35.3277C44.6027 32.4015 44.1643 29.5172 43.8327 26.6138C43.5086 23.7677 43.4439 20.7613 42.8607 17.9533V17.9571Z" fill="#F1C977"/>
<path d="M40.3715 50.3714C40.3715 50.3714 40.3409 50.4057 40.3257 50.4248C36.125 55.1175 31.9091 59.7987 27.6931 64.48C25.7872 66.5974 23.7249 68.5661 21.8647 70.7255C20.4848 72.3278 18.6398 74.4453 18.575 76.6886C18.495 79.3745 20.8508 81.4424 23.4009 81.6904C28.1925 81.9536 31.6651 77.6005 33.9408 73.9417C36.205 70.2982 37.9051 66.2922 39.548 62.3397C40.3867 60.3252 46.9432 49.8525 43.5354 48.7079C42.2812 48.2883 41.1262 49.5244 40.3677 50.3714H40.3715Z" fill="#F1C977"/>
<path d="M56.3782 31.4864C57.9792 29.0752 59.4734 26.5686 61.0782 24.2489C63.0261 21.4295 64.9435 18.591 66.7922 15.7067C68.4085 13.1887 71.3094 9.91904 71.2675 6.7715C71.2217 2.99445 66.2166 4.49763 64.0477 5.21871C60.1024 6.53114 56.504 8.8584 54.3998 12.5439C52.8903 15.184 52.0021 18.1294 51.194 21.0632C50.1991 24.6686 49.2995 28.3236 48.9641 32.0587C48.7735 34.1723 48.6552 40.7573 52.1279 37.0375C53.6984 35.355 55.0783 33.455 56.382 31.4902L56.3782 31.4864Z" fill="#F1C977"/>
<path d="M38.4635 47.288C39.306 45.9526 38.9553 44.8272 37.1332 44.6326C34.4611 44.3465 31.8041 45.2545 29.1815 45.594C22.667 46.7653 16.1563 47.9366 9.64178 49.1078C6.64182 49.6458 3.27977 50.0654 0.958322 52.2439C-0.513068 53.3923 -0.21194 54.7353 1.32806 55.6166C2.38015 56.4368 3.45888 57.2304 4.58721 57.9438C9.11192 61.2135 14.4066 61.4004 19.5031 59.4165C23.033 58.043 26.3913 56.2575 29.5971 54.2431C32.5132 52.408 36.1344 50.3974 38.2424 47.6123C38.3263 47.5016 38.3987 47.3948 38.4674 47.288H38.4635Z" fill="#F1C977"/>
<path d="M14.1506 29.1823C18.378 33.0166 23.2191 36.1832 28.4337 38.5067C31.6815 39.9526 35.0664 41.0857 38.5391 41.8488C38.6382 41.8411 38.722 41.8259 38.7944 41.8068C39.5797 41.5932 39.5492 40.9713 39.107 40.3914C37.5175 38.3083 35.8898 36.2519 34.4069 34.0963C33.6369 32.9746 32.8784 31.8453 32.1389 30.7008C31.8759 30.2925 30.3244 27.2518 29.9699 27.2518C28.9903 25.6609 27.9992 24.0738 26.9052 22.5629C26.402 21.8686 24.294 18.4769 23.4096 18.4769C19.3309 13.7307 7.64368 10.0834 6.4658 18.9881C6.93848 22.8643 11.5356 26.443 14.1506 29.1861V29.1823Z" fill="#F1C977"/>
<path d="M82.1563 39.3607C77.3038 37.5408 72.0663 37.1707 66.9469 37.7583C63.886 38.1093 60.8669 38.7579 57.8899 39.54C56.3613 39.9406 54.8442 40.3793 53.3309 40.8371C52.2597 41.1614 50.7121 41.314 50.1899 42.4624C48.6079 45.9266 54.3448 47.3497 56.4337 47.88C61.7932 49.2344 67.1947 50.2454 72.6953 50.8253C77.929 51.3786 83.1932 51.6075 88.4574 51.6418C90.3748 51.6227 93.5615 52.0615 93.9999 49.5434C93.2375 44.8889 86.2656 40.9516 82.1601 39.3645L82.1563 39.3607Z" fill="#F1C977"/>
</g>
</svg>
