<svg width="18" height="18" viewBox="0 0 18 18" fill="none" xmlns="http://www.w3.org/2000/svg">
<path fill-rule="evenodd" clip-rule="evenodd" d="M2.99999 2.25004C3.41409 2.25004 3.75007 2.58603 3.75007 2.99999C3.75007 3.41409 3.41409 3.75007 2.99999 3.75007C2.58603 3.75007 2.25004 3.41409 2.25004 2.99999C2.25004 2.58603 2.58603 2.25004 2.99999 2.25004ZM5.24997 2.25004C5.66406 2.25004 6.00005 2.58603 6.00005 2.99999C6.00005 3.41409 5.66406 3.75007 5.24997 3.75007C4.83601 3.75007 4.50002 3.41409 4.50002 2.99999C4.50002 2.58603 4.83601 2.25004 5.24997 2.25004ZM7.49995 2.25004C7.91404 2.25004 8.25003 2.58603 8.25003 2.99999C8.25003 3.41409 7.91404 3.75007 7.49995 3.75007C7.08599 3.75007 6.75 3.41409 6.75 2.99999C6.75 2.58603 7.08599 2.25004 7.49995 2.25004ZM18 4.50002V0.74995C18 0.335986 17.6647 0 17.25 0H0.74995C0.335247 0 0 0.335986 0 0.74995V4.50002H18Z" fill="#005C87" fill-opacity="0.6"/>
<path fill-rule="evenodd" clip-rule="evenodd" d="M5.25001 11.9997H6.75004V8.24999H5.25001V11.9997Z" fill="#005C87" fill-opacity="0.6"/>
<path fill-rule="evenodd" clip-rule="evenodd" d="M14.2497 11.2499C14.2497 11.6638 13.9144 11.9998 13.4997 11.9998H10.4998C10.085 11.9998 9.74974 11.6638 9.74974 11.2499V7.49979C9.74974 7.08583 10.085 6.74984 10.4998 6.74984H13.4997C13.9144 6.74984 14.2497 7.08583 14.2497 7.49979V11.2499ZM13.4997 14.2498H10.4998C10.085 14.2498 9.74974 13.9138 9.74974 13.4998C9.74974 13.0859 10.085 12.7499 10.4998 12.7499H13.4997C13.9144 12.7499 14.2497 13.0859 14.2497 13.4998C14.2497 13.9138 13.9144 14.2498 13.4997 14.2498ZM8.2499 12.7499C8.2499 13.1639 7.91465 13.4998 7.49982 13.4998H4.49989C4.08519 13.4998 3.74994 13.1639 3.74994 12.7499V7.49973C3.74994 7.08576 4.08519 6.74978 4.49989 6.74978H7.49982C7.91465 6.74978 8.2499 7.08576 8.2499 7.49973V12.7499ZM7.49982 15.7498H4.49989C4.08519 15.7498 3.74994 15.4138 3.74994 14.9999C3.74994 14.5858 4.08519 14.2498 4.49989 14.2498H7.49982C7.91465 14.2498 8.2499 14.5858 8.2499 14.9999C8.2499 15.4138 7.91465 15.7498 7.49982 15.7498ZM0 6.00002V17.2499C0 17.6639 0.335247 17.9999 0.74995 17.9999H17.25C17.6647 17.9999 18 17.6639 18 17.2499V6.00002H0Z" fill="#005C87" fill-opacity="0.6"/>
<path fill-rule="evenodd" clip-rule="evenodd" d="M11.2501 10.5H12.7501V8.24999H11.2501V10.5Z" fill="#005C87" fill-opacity="0.6"/>
</svg>
