<svg width="60" height="60" viewBox="0 0 60 60" fill="none" xmlns="http://www.w3.org/2000/svg">
<rect opacity="0.3" width="60" height="60" rx="30" fill="#85C0EA"/>
<rect x="9" y="9" width="42" height="42" rx="21" fill="#85C0EA"/>
<path fill-rule="evenodd" clip-rule="evenodd" d="M41.8 19.5267L41.931 19.7192L41.9311 19.7194C42.0796 19.9413 42.1883 20.1038 40.0038 25.3984C38.9947 27.6053 37.627 28.4211 36.6524 28.7175C36.3029 28.8224 35.9837 28.8701 35.7042 28.888L35.4597 30.2835C35.4597 31.4873 34.4808 32.4645 33.2749 32.4645H31.4746V36.0981H31.9418C33.3142 36.0981 34.4416 37.158 34.5508 38.4972H36.6089V42H23.4999V38.4973H25.4445C25.5581 37.158 26.6854 36.0982 28.0574 36.0982H28.4683V32.4645H26.5762C25.3703 32.4645 24.3914 31.4874 24.3914 30.2835L24.1422 28.8659C22.9888 28.7441 21.2234 28.0813 20.0043 25.4112C17.8152 20.1027 17.9197 19.9412 18.0682 19.7193L18.1997 19.5267H18.4357H22.5211L22.2544 18H37.5964L37.3297 19.5267H41.8ZM18.9844 20.4023C19.1679 20.9698 19.6356 22.2434 20.8022 25.0698C21.7679 27.1899 23.0703 27.8178 23.9834 27.9796L22.6679 20.4023H18.9844ZM31.7779 25.867L32.9381 29.3306L29.9971 27.1581L27.0557 29.3306L28.216 25.8674L25.2383 23.7767H28.8961L29.9971 20.2939L31.0976 23.7767H34.7559L31.7779 25.867ZM35.8555 28.0057C36.7729 27.8877 38.1713 27.3075 39.2023 25.0524C40.3603 22.2392 40.8281 20.9698 41.0115 20.4023H37.1749L35.8555 28.0057Z" fill="white"/>
</svg>
