<svg width="60" height="60" viewBox="0 0 60 60" fill="none" xmlns="http://www.w3.org/2000/svg">
<rect opacity="0.3" width="60" height="60" rx="30" fill="#85C0EA"/>
<rect x="9" y="9.00024" width="42" height="42" rx="21" fill="#85C0EA"/>
<path d="M40.4342 22.6617H38.6872C38.9177 22.2964 39.0697 21.8863 39.1131 21.4526C39.2516 20.0666 38.5229 18.8242 37.2824 18.2733C36.1422 17.767 34.8608 17.974 33.9381 18.8123L31.7322 20.815C31.3026 20.3443 30.685 20.0485 29.9997 20.0485C29.3131 20.0485 28.6945 20.3453 28.2648 20.8174L26.0561 18.8121C25.1319 17.9738 23.8511 17.7676 22.7113 18.2736C21.4711 18.8245 20.7423 20.0674 20.8813 21.4533C20.9247 21.8867 21.0767 22.2966 21.3071 22.6617H19.5652C18.7007 22.6617 18 23.3637 18 24.2296V26.5815C18 27.0145 18.3504 27.3655 18.7826 27.3655H41.2168C41.6489 27.3655 41.9993 27.0145 41.9993 26.5815V24.2296C41.9993 23.3637 41.2986 22.6617 40.4342 22.6617ZM27.6519 22.4004V22.6617H23.9703C22.9976 22.6617 22.232 21.7533 22.475 20.7388C22.582 20.292 22.9039 19.9111 23.3203 19.7183C23.8921 19.4536 24.5254 19.5386 25.0056 19.974L27.6526 22.3773C27.6524 22.385 27.6519 22.3926 27.6519 22.4004ZM37.5601 21.2445C37.5018 22.0593 36.767 22.6618 35.9516 22.6618H32.3474V22.4005C32.3474 22.3912 32.3469 22.3821 32.3468 22.3728C32.9464 21.8283 34.2471 20.6473 34.9527 20.0067C35.3536 19.6426 35.9146 19.4727 36.4332 19.6276C37.1775 19.85 37.6145 20.484 37.5601 21.2445Z" fill="white"/>
<path d="M19.5664 28.9336V40.4317C19.5664 41.2977 20.2671 41.9996 21.1316 41.9996H28.4357V28.9336H19.5664Z" fill="white"/>
<path d="M31.5625 28.9336V41.9996H38.8666C39.7311 41.9996 40.4318 41.2977 40.4318 40.4317V28.9336H31.5625Z" fill="white"/>
</svg>
