<svg width="176" height="9" viewBox="0 0 176 9" fill="none" xmlns="http://www.w3.org/2000/svg">
<path d="M91.5536 5.79793L91.5536 5.79798C90.3922 8.14337 87.1571 8.79534 85.2079 6.8602C84.7307 6.38671 84.4301 5.9503 84.2487 5.46412C84.0673 4.97789 84.005 4.44152 84.005 3.76783C84.005 2.69562 84.5854 1.77011 85.2909 1.09673L85.2909 1.09673L85.291 1.09656C85.581 0.791864 86.0579 0.49999 86.5714 0.294809C87.0849 0.0896197 87.6343 -0.0285636 88.0692 0.0134294L88.0692 0.0134297C89.7703 0.176517 90.9419 1.03385 91.538 2.14455C92.1342 3.25536 92.155 4.61995 91.5536 5.79793ZM91.558 5.8002C92.7623 3.44136 91.4749 0.334924 88.0697 0.00845256L85.2874 1.09311C84.5814 1.76704 84 2.69376 84 3.76783C84 5.11575 84.2492 5.91604 85.2043 6.86375C87.1561 8.80139 90.3952 8.14852 91.558 5.8002Z" fill="#85C0EA" stroke="#85C0EA" stroke-width="0.01"/>
<line y1="4.28418" x2="80" y2="4.28418" stroke="#F1C977" stroke-width="2"/>
<line x1="96" y1="4.28418" x2="176" y2="4.28418" stroke="#F1C977" stroke-width="2"/>
</svg>
