<svg width="60" height="60" viewBox="0 0 60 60" fill="none" xmlns="http://www.w3.org/2000/svg">
<rect opacity="0.3" width="60" height="60" rx="30" fill="#85C0EA"/>
<rect x="9" y="9.00024" width="42" height="42" rx="21" fill="#85C0EA"/>
<path d="M36.0351 22.1643C36.5436 20.8815 35.9159 19.4294 34.6332 18.9208C33.3504 18.4123 31.8982 19.04 31.3897 20.3228C30.8812 21.6056 31.5089 23.0577 32.7917 23.5662C34.0745 24.0747 35.5266 23.4471 36.0351 22.1643Z" fill="white"/>
<path d="M38.5888 28.4048L36.4087 28.3068L35.1839 26.0287C34.8654 25.4163 34.302 24.9263 33.6651 24.6569L31.387 23.7505C30.7746 23.5056 30.1132 23.4811 29.4763 23.6525L26.7082 24.4364C26.4633 24.5099 26.2428 24.6569 26.0958 24.8774L24.4056 27.327C24.0627 27.8414 24.1851 28.5273 24.6996 28.8702C25.214 29.2132 25.8999 29.0907 26.2428 28.5763L27.7126 26.4451L29.4763 25.9307L27.2471 31.5158L25.5569 34.2838L21.7845 33.8429C21.0741 33.7694 20.4372 34.2838 20.3393 34.9942C20.2658 35.7046 20.7802 36.3415 21.4906 36.4395L26.0713 36.9539C26.1203 36.9539 26.1693 36.9539 26.2183 36.9539C26.6592 36.9539 27.0757 36.7334 27.3206 36.3415L29.3783 32.9855L31.6564 36.6599L32.3178 40.8978C32.4158 41.5347 32.9792 42.0001 33.5916 42.0001C33.6651 42.0001 33.7141 42.0001 33.7876 41.9756C34.498 41.8776 34.9879 41.2162 34.8899 40.5058L34.2285 36.0231C34.204 35.8516 34.1305 35.6801 34.057 35.5331L31.9259 32.1282L33.6651 27.8659L34.7674 29.9235C34.9634 30.2665 35.3063 30.4869 35.6983 30.5114L38.5153 30.6339C38.5398 30.6339 38.5398 30.6339 38.5643 30.6339C39.1522 30.6339 39.6421 30.1685 39.6666 29.5806C39.6911 28.9682 39.2012 28.4293 38.5888 28.4048Z" fill="white"/>
</svg>
