<svg width="9" height="64" viewBox="0 0 9 64" fill="none" xmlns="http://www.w3.org/2000/svg">
<path d="M2.21279 35.4499L2.21274 35.4499C-0.141196 34.2843 -0.795545 31.0374 1.14665 29.0811C1.62187 28.6021 2.05987 28.3004 2.54781 28.1184C3.03582 27.9363 3.57415 27.8738 4.25029 27.8738C5.32641 27.8738 6.25529 28.4563 6.93113 29.1643L6.93112 29.1643L6.9313 29.1645C7.2371 29.4556 7.53004 29.9342 7.73597 30.4495C7.94191 30.9649 8.06052 31.5163 8.01838 31.9528L8.01838 31.9528C7.85469 33.6601 6.99424 34.836 5.87948 35.4343C4.76462 36.0326 3.39506 36.0535 2.21279 35.4499ZM2.21051 35.4544C4.57795 36.663 7.69571 35.3709 8.02337 31.9533L6.93476 29.1609C6.25838 28.4523 5.32827 27.8688 4.25029 27.8688C2.89746 27.8688 2.09425 28.1189 1.14309 29.0775C-0.80162 31.0364 -0.146365 34.2873 2.21051 35.4544Z" fill="#85C0EA" stroke="#85C0EA" stroke-width="0.01"/>
<line x1="3.73108" y1="4.38707e-08" x2="3.73108" y2="24.0875" stroke="#F1C977" stroke-width="2"/>
<line x1="3.73108" y1="39.9125" x2="3.73108" y2="64" stroke="#F1C977" stroke-width="2"/>
</svg>
