<svg width="382" height="262" viewBox="0 0 382 262" fill="none" xmlns="http://www.w3.org/2000/svg">
<g clip-path="url(#clip0_2_10364)">
<path opacity="0.5" d="M125.585 46.4807C123.422 52.4733 123.463 59.4693 126.571 65.1335C129.003 69.6512 132.804 73.2204 136.738 76.4284C142.022 80.7467 147.698 84.5617 153.001 88.8605C158.29 93.0599 163.212 97.8388 166.798 103.602C170.168 108.855 172.326 114.918 172.72 121.156C172.818 124.746 172.849 128.36 172.122 131.894C170.841 139.39 167.457 146.292 163.736 152.847C160.547 158.436 157.355 164.053 154.896 170.014C152.17 176.624 150.059 183.532 149.189 190.648C148.427 197.309 148.871 204.318 151.832 210.437C154.244 215.608 158.501 219.902 163.713 222.249C169.808 225.073 176.634 225.473 183.218 226.1C189.998 226.557 196.779 227.116 203.524 227.991C210.274 228.89 217.06 230.002 223.466 232.377C228.32 234.189 232.973 236.706 236.831 240.189C241.154 243.931 244.183 248.978 246.112 254.323C248.526 261.172 249.853 268.335 251.904 275.29C254.039 282.703 256.756 290.003 260.685 296.668C263.171 300.941 266.343 304.881 270.373 307.797C275.683 311.712 281.96 313.921 287.932 316.592C293.342 318.951 298.736 321.532 303.356 325.253C307.8 328.805 311.802 332.977 314.895 337.772C316.861 340.953 318.455 344.6 318.24 348.419C318.38 350.277 317.681 352.027 317.279 353.806C317.397 353.868 317.638 353.991 317.756 354.053C318.577 351.655 319.448 349.119 319.071 346.56C318.385 340.567 314.793 335.412 310.837 331.065C306.819 326.556 302.072 322.658 296.742 319.794C290.424 316.326 283.596 313.949 277.128 310.801C272.466 308.494 268.124 305.379 264.933 301.241C260.889 296.097 258.097 290.105 255.756 284.034C253.334 277.573 251.591 270.884 249.96 264.188C248.361 257.972 246.722 251.608 243.177 246.169C240.04 241.153 235.405 237.218 230.249 234.387C224.92 231.45 219.037 229.65 213.086 228.489C205.855 227.082 198.515 226.322 191.183 225.705C184.21 225.117 177.163 224.946 170.288 223.464C164.476 222.22 158.837 219.252 155.266 214.393C150.817 208.658 149.362 201.148 149.668 194.033C150.598 180.997 155.652 168.627 162.107 157.398C165.376 151.606 168.797 145.838 170.97 139.524C173.395 132.416 174.444 124.72 173.098 117.281C172.012 110.643 168.897 104.472 164.82 99.1785C157.547 89.7616 147.16 83.5942 138.016 76.2233C133.636 72.6897 129.307 68.7703 126.872 63.5948C124.32 58.1612 124.536 51.7387 126.704 46.2165C129.099 39.7431 133.585 34.1788 139.043 30.0194C147.721 23.4745 158.282 19.3462 169.128 18.5069C170.643 18.3614 172.22 18.2293 173.695 18.7207C173.624 18.3355 173.531 17.68 172.989 17.7499C166.967 17.366 160.96 18.5333 155.268 20.4371C148.787 22.6386 142.615 25.8575 137.308 30.1982C132.042 34.4438 127.84 40.0769 125.597 46.483L125.585 46.4807Z" fill="#F1C977"/>
</g>
<defs>
<clipPath id="clip0_2_10364">
<rect width="382" height="262" fill="white"/>
</clipPath>
</defs>
</svg>
