<svg width="60" height="60" viewBox="0 0 60 60" fill="none" xmlns="http://www.w3.org/2000/svg">
<rect opacity="0.3" width="60" height="60" rx="30" fill="#85C0EA"/>
<rect x="9" y="9.00024" width="42" height="42" rx="21" fill="#85C0EA"/>
<g clip-path="url(#clip0_2_10137)">
<path d="M27.9219 32.3354C28.5557 32.6333 29.2553 32.8125 30.0007 32.8125C30.746 32.8125 31.4457 32.6333 32.0795 32.3354C31.5532 31.7541 30.8072 31.4062 30.0007 31.4062C29.1942 31.4062 28.4482 31.7541 27.9219 32.3354Z" fill="white"/>
<path d="M26.7426 31.5516C27.535 30.5829 28.7177 29.9999 30 29.9999C28.4489 29.9999 27.1875 28.7386 27.1875 27.1874C27.1875 25.6363 28.4489 24.375 30 24.375C31.5511 24.375 32.8125 25.6363 32.8125 27.1874C32.8125 28.7386 31.5511 29.9999 30 29.9999C31.2823 29.9999 32.465 30.5829 33.2574 31.5516C34.2703 30.6493 34.9219 29.3503 34.9219 27.8906C34.9219 25.177 32.7136 22.9688 30 22.9688C27.2864 22.9688 25.0781 25.177 25.0781 27.8906C25.0781 29.3503 25.7297 30.6493 26.7426 31.5516Z" fill="white"/>
<path d="M30 28.5937C30.7766 28.5937 31.4062 27.9641 31.4062 27.1875C31.4062 26.4108 30.7766 25.7812 30 25.7812C29.2233 25.7812 28.5938 26.4108 28.5938 27.1875C28.5938 27.9641 29.2233 28.5937 30 28.5937Z" fill="white"/>
<path d="M23.1171 21.8227C22.4504 21.993 21.8935 22.4153 21.5488 23.012C21.2048 23.608 21.1176 24.3015 21.3037 24.9641C21.415 25.3617 21.301 25.7881 21.005 26.0772C20.5127 26.5578 20.2422 27.2019 20.2422 27.8906C20.2422 28.5794 20.5127 29.2234 21.005 29.7041C21.301 29.9932 21.415 30.4196 21.3037 30.8164C21.1176 31.4797 21.2049 32.1726 21.5488 32.7686C21.8928 33.3652 22.4504 33.7875 23.1171 33.9578C23.5174 34.0602 23.8291 34.3726 23.9315 34.7729C24.1024 35.4397 24.5247 35.9965 25.1207 36.3405C25.7168 36.6838 26.4082 36.7745 27.0729 36.5863C27.4718 36.4744 27.8976 36.5891 28.1859 36.885C28.6666 37.3773 29.3107 37.6478 29.9994 37.6478C30.6881 37.6478 31.3322 37.3773 31.8128 36.885C32.1012 36.5891 32.5283 36.4744 32.9259 36.5863C33.5906 36.7745 34.2841 36.6838 34.8787 36.3405C35.474 35.9965 35.8963 35.4396 36.0666 34.7729C36.1689 34.3726 36.4813 34.0602 36.8817 33.9578C37.5484 33.7875 38.1053 33.3652 38.4493 32.7699C38.7933 32.1739 38.8805 31.4804 38.6951 30.8171C38.5838 30.4196 38.6978 29.9932 38.9937 29.7041C39.4861 29.2234 39.7566 28.5794 39.7566 27.8906C39.7566 27.2019 39.4861 26.5578 38.9937 26.0772C38.6978 25.7881 38.5838 25.3617 38.6951 24.9641C38.8812 24.3009 38.7933 23.6073 38.4493 23.0106C38.1045 22.4153 37.5484 21.993 36.881 21.8227C36.4813 21.7204 36.1689 21.4087 36.0666 21.0084C35.8963 20.3416 35.474 19.7372 34.8773 19.3932C34.282 19.0492 33.5906 18.9641 32.9259 19.1481C32.5283 19.2586 32.1012 19.1453 31.8128 18.8494C31.3286 18.3535 30.6706 17.9963 29.9993 18C29.3379 18.0036 28.663 18.3607 28.1859 18.8494C27.8961 19.1453 27.469 19.2586 27.0736 19.1481C26.4103 18.9613 25.7174 19.0478 25.1214 19.3925C24.5254 19.7373 24.1024 20.341 23.9314 21.0091C23.8292 21.4087 23.5174 21.7204 23.1171 21.8227ZM29.9993 21.5625C33.4889 21.5625 36.3275 24.4011 36.3275 27.8906C36.3275 31.3801 33.4889 34.2187 29.9993 34.2187C26.5098 34.2187 23.6712 31.3801 23.6712 27.8906C23.6712 24.4011 26.5098 21.5625 29.9993 21.5625Z" fill="white"/>
<path d="M27.3516 38.0254C27.3319 38.0075 27.3087 37.995 27.2893 37.9766C27.0291 38.048 26.7064 38.0885 26.3837 38.0885C25.6991 38.0885 25.0193 37.9052 24.4178 37.5591C23.5369 37.0503 22.9004 36.2442 22.6113 35.2767C22.5616 35.2619 22.5177 35.2358 22.4689 35.2191L20.2266 39.1041L23.5994 38.8864L25.0969 41.9998L27.3516 38.0254Z" fill="white"/>
<path d="M39.7696 39.1043L37.5272 35.2192C37.4781 35.236 37.434 35.2621 37.3841 35.2769C37.0958 36.2444 36.4599 37.0498 35.581 37.5579C34.9795 37.9054 34.299 38.0887 33.6131 38.0887C33.3069 38.0887 33.0013 38.053 32.702 37.9809C32.6841 37.9978 32.6626 38.0092 32.6445 38.0258L34.8992 42L36.3968 38.8866L39.7696 39.1043Z" fill="white"/>
</g>
<defs>
<clipPath id="clip0_2_10137">
<rect width="24" height="24" fill="white" transform="translate(18 18)"/>
</clipPath>
</defs>
</svg>
