<svg width="60" height="60" viewBox="0 0 60 60" fill="none" xmlns="http://www.w3.org/2000/svg">
<circle cx="30" cy="30" r="30" fill="#76AB78"/>
<path d="M43.1709 27.4838C43.0602 27.6683 42.8757 27.779 42.6543 27.779C42.4329 27.779 42.2483 27.6683 42.1376 27.4838L41.0674 25.7124L40.8091 26.1552C40.6984 26.3398 40.5139 26.4505 40.2924 26.4505H37.7461L41.621 30.3254C41.7686 30.473 41.99 30.473 42.1376 30.3254L46.0125 26.4505H43.8352L43.1709 27.4838Z" fill="white"/>
<path d="M48.3401 23.9771H47.1592C47.1223 23.1652 46.7163 22.3534 45.9045 21.8367C44.8343 21.1355 43.3581 21.32 42.4355 22.2426L41.8451 22.8331L41.2177 22.2057C39.9999 20.9879 37.9702 21.1355 36.9738 22.6486C36.6785 23.0545 36.5678 23.5343 36.5309 24.014H35.35C35.0179 24.014 34.7227 24.3092 34.7227 24.6414C34.7227 24.9735 34.981 25.2687 35.35 25.2687H39.9261L40.5534 24.2354C40.7749 23.8664 41.4022 23.8664 41.6236 24.2354L42.6938 26.0068L42.9522 25.564C43.0629 25.3794 43.2474 25.2687 43.4688 25.2687H48.377C48.7091 25.2687 49.0044 24.9735 49.0044 24.6414C48.9675 24.2723 48.7091 23.9771 48.3401 23.9771Z" fill="white"/>
<path d="M19.3323 33.6841L14.2027 41.766C13.6491 42.6148 13.9074 43.7588 14.7562 44.3123C15.0515 44.4969 15.4205 44.5707 15.7526 44.5707C16.3431 44.5707 16.9704 44.2754 17.3026 43.7219L22.3584 35.7876L20.9929 35.1602C20.2918 34.865 19.7013 34.3114 19.3323 33.6841Z" fill="white"/>
<path d="M31.6579 22.9447C33.4311 22.9447 34.8685 21.5072 34.8685 19.7341C34.8685 17.9609 33.4311 16.5234 31.6579 16.5234C29.8847 16.5234 28.4473 17.9609 28.4473 19.7341C28.4473 21.5072 29.8847 22.9447 31.6579 22.9447Z" fill="white"/>
<path d="M35.1985 27.7794L32.9474 28.4068L31.8403 25.9342C31.5082 25.1962 30.9915 24.5688 30.2904 24.126L27.6333 22.3915C26.8583 21.8748 25.9357 21.6534 25.0131 21.7272L21.1383 22.0224C20.7323 22.0594 20.3633 22.2439 20.1049 22.5391L17.4848 25.639C16.9312 26.2664 17.005 27.2628 17.6693 27.7794C18.2967 28.333 19.2931 28.2592 19.8097 27.5949L22.0239 24.9747L24.3489 24.7902L20.9906 30.7686C20.7323 31.2115 20.6954 31.7281 20.843 32.2079C20.9906 32.6876 21.3597 33.0935 21.8025 33.315L26.969 35.7506L24.0905 39.6624C23.5001 40.4743 23.6846 41.6183 24.4965 42.2456C24.8286 42.4671 25.1976 42.6147 25.5667 42.6147C26.1202 42.6147 26.6738 42.3564 27.0428 41.8766L31.2129 36.1565C31.5451 35.7137 31.6558 35.1601 31.5082 34.6066C31.3606 34.0899 30.9915 33.6471 30.5118 33.3888L26.8952 31.6912L29.3678 28.0008L30.6225 30.8055C30.8808 31.3591 31.4344 31.7281 32.0248 31.7281C32.1724 31.7281 32.2832 31.6912 32.4308 31.6543L35.9735 30.6579C36.7854 30.4365 37.2651 29.5877 37.0437 28.7758C36.8592 28.0008 36.0104 27.5211 35.1985 27.7794Z" fill="white"/>
<circle cx="30" cy="30" r="30" fill="#76AB78"/>
<path d="M41.7448 21.1682L42.8161 20.0969C43.2162 19.6968 43.2162 19.0485 42.8161 18.6484L41.7032 17.5354C41.3031 17.1353 40.6548 17.1353 40.2547 17.5354L39.1834 18.6067L36.1696 15.5929C35.7695 15.1928 35.1212 15.1932 34.721 15.5929L33.4436 16.8704C33.0445 17.2695 33.0438 17.9161 33.4415 18.3162L31.0299 15.9046C30.6298 15.5045 29.9812 15.5048 29.5814 15.9046L28.3039 17.1821C27.9038 17.5819 27.9038 18.2305 28.3039 18.6303L33.7317 24.0584L23.8245 33.9659L18.3964 28.5382C17.9963 28.138 17.3476 28.1384 16.9479 28.5382L15.6704 29.8156C15.2703 30.2158 15.2703 30.8641 15.6704 31.2642L18.082 33.6758C17.6815 33.278 17.0353 33.2787 16.6362 33.6778L15.3587 34.9553C14.9586 35.3554 14.9586 36.0037 15.3587 36.4038L18.3725 39.418L17.3012 40.4892C16.9011 40.8894 16.9011 41.5377 17.3012 41.9378L18.4141 43.0507C18.8142 43.4508 19.4625 43.4508 19.8627 43.0507L20.9343 41.9791L23.9481 44.9929C24.3482 45.393 24.9965 45.393 25.3966 44.9929L26.6741 43.7154C27.0732 43.3163 27.0735 42.6697 26.6761 42.2696L29.0877 44.6812C29.4879 45.0813 30.1362 45.0813 30.5363 44.6812L31.8138 43.4037C32.2135 43.0039 32.2139 42.3553 31.8138 41.9552L26.386 36.5274L36.2935 26.6199L41.7213 32.0477C42.121 32.4478 42.7697 32.4478 43.1698 32.0477L44.4473 30.7702C44.8471 30.3704 44.8474 29.7218 44.4473 29.3216L42.0357 26.9101C42.4358 27.3078 43.0824 27.3071 43.4815 26.908L44.759 25.6305C45.1587 25.2308 45.1591 24.5821 44.759 24.182L41.7448 21.1682Z" fill="white"/>
</svg>
